<svg class="c-weather-icon-svg" xmlns="http://www.w3.org/2000/svg" viewBox="0 0 479.062 480.022">
  <g id="_01d" data-name="01d" transform="translate(0 0.082)">
    <rect id="Rectangle_20" data-name="Rectangle 20" width="479.06" height="479.06" transform="translate(0 -0.082)" fill="none"/>
    <path id="Path_1" data-name="Path 1" d="M110,347.61c2.84-4.37,7-5.44,12-5.4,18.66.16,37.33.06,56,.06h.47c7.4.05,11.32,2.87,11.32,8.15s-3.92,8.13-11.32,8.14c-18.82,0-37.64-.09-56.46.07-5,0-9.15-1-12-5.4Z" transform="translate(-110 -110)" fill="#fcd12b"/>
    <path id="Path_2" data-name="Path 2" d="M346.75,589.94c-4.37-2.84-5.44-7-5.4-12,.16-18.67.06-37.33.06-56v-.47c0-7.4,2.87-11.32,8.15-11.32s8.13,3.92,8.14,11.32c0,18.82-.08,37.64.07,56.46,0,5-1,9.14-5.4,12Z" transform="translate(-110 -110)" fill="#fcd12b"/>
    <path id="Path_3" data-name="Path 3" d="M485.25,350.37c0,74.7-60.76,135.59-135.53,135.72s-136-61-135.85-135.86,61.05-135.54,135.76-135.48S485.21,275.64,485.25,350.37Z" transform="translate(-110 -110)" fill="#fccf20"/>
    <path id="Path_4" data-name="Path 4" d="M237.8,229.21c0,7.4-6.38,11.19-11.71,8.34a17.93,17.93,0,0,1-4-3.21c-14.67-14.62-29.36-29.23-43.9-44-1.78-1.8-3.74-4.33-3.85-6.6a9.36,9.36,0,0,1,3.18-7c1.86-1.34,5.19-1.21,7.74-.83,1.59.24,3.07,2,4.38,3.32q22,21.92,43.91,44C235.55,225.17,236.86,227.84,237.8,229.21Z" transform="translate(-110 -110)" fill="#fcd127"/>
    <path id="Path_5" data-name="Path 5" d="M470.55,238.66c-7-.15-10.8-6.15-8.44-11.13a16.751,16.751,0,0,1,3.41-4.39q21.93-22,43.94-43.95a19.61,19.61,0,0,1,4-3.21c3.42-1.95,6.72-1.3,9.36,1.43a7.22,7.22,0,0,1,1.11,9.4,17.851,17.851,0,0,1-2.61,3.27c-14.85,14.88-29.68,29.79-44.66,44.56C474.64,236.6,471.89,237.79,470.55,238.66Z" transform="translate(-110 -110)" fill="#fcd127"/>
    <path id="Path_6" data-name="Path 6" d="M183.12,526.14c-6.82-.19-10.62-5.81-8.61-10.71a13.359,13.359,0,0,1,2.86-4.18q22.57-22.69,45.25-45.28a16.761,16.761,0,0,1,2.11-1.84c3.56-2.54,7.81-2.31,10.58.7,2.93,3.18,3,6.68.64,10.22a19.05,19.05,0,0,1-2.46,2.79c-14.64,14.66-29.25,29.35-44,43.9C187.38,523.81,184.56,525.17,183.12,526.14Z" transform="translate(-110 -110)" fill="#fcd127"/>
    <path id="Path_7" data-name="Path 7" d="M525.32,516.71c-.16,6.87-5.71,10.73-10.62,8.72a15.85,15.85,0,0,1-4.89-3.46q-22.2-22.07-44.29-44.26a15.691,15.691,0,0,1-3.13-4,7.82,7.82,0,0,1,10.54-10.41,18.5,18.5,0,0,1,4.34,3.48q21.86,21.76,43.59,43.64C522.94,512.51,524.34,515.29,525.32,516.71Z" transform="translate(-110 -110)" fill="#fcd127"/>
    <path id="Path_8" data-name="Path 8" d="M341.41,150.54v-28.5a20.47,20.47,0,0,1,.65-5.53,7.81,7.81,0,0,1,15,.08,19.7,19.7,0,0,1,.64,5.53q.06,28.73,0,57.46a22.781,22.781,0,0,1-.55,5.08,7.18,7.18,0,0,1-7.38,5.94c-4,.07-6.84-2-7.76-6a25.711,25.711,0,0,1-.55-5.54C341.38,169.54,341.41,160,341.41,150.54Z" transform="translate(-110 -110)" fill="#fcd12b"/>
    <path id="Path_9" data-name="Path 9" d="M548.88,358.56H519.44c-3.53,0-6.84-.65-8.91-4a7.8,7.8,0,0,1,4-11.48,20.279,20.279,0,0,1,6-.75q28.74-.07,57.48,0h2.33c5.23.45,8.63,3.58,8.72,8,.09,4.57-3.43,8.12-8.9,8.22-10.43.2-20.87.06-31.3.06Z" transform="translate(-110 -110)" fill="#fcd12b"/>
  </g>
</svg>
