<svg class="c-weather-icon-svg" xmlns="http://www.w3.org/2000/svg" viewBox="0 0 479.06 479.06">
  <g id="_01n" data-name="01n" transform="translate(50.939 51.361)">
    <rect id="Rectangle_3" data-name="Rectangle 3" width="479.06" height="479.06" transform="translate(-50.939 -51.361)" fill="none"/>
    <path id="Path_10" data-name="Path 10" d="M298.705,493.153c-4.13-.7-8.252-1.479-12.4-2.069-35.369-5.043-66.608-19.285-93.838-42.312a184.806,184.806,0,0,1-57.9-87.364,188.565,188.565,0,0,1,13.6-143.214c16.739-31.522,40.8-56.133,71.6-74.149a182.4,182.4,0,0,1,64.264-22.777c16.019-2.522,32.209-3.475,48.366-1.73,11.93,1.285,23.771,3.395,35.644,5.165a14.275,14.275,0,0,1,2.3.808c-5.043,2.425-9.747,4.623-14.346,7.008-26.333,13.684-46.07,33.947-59.657,60.231a134.63,134.63,0,0,0-14.5,49.384c-3.015,31.764,4.47,60.991,22.041,87.4,16.222,24.425,38.36,41.722,65.977,51.987,18.081,6.725,36.808,9.133,55.882,8.357a123.476,123.476,0,0,0,57.232-16.642,28.777,28.777,0,0,1,3.6-1.471l.057.049c-4.664,10.257-8.495,21.015-14.12,30.714-23.544,40.558-58.146,67.893-102.648,82.094-12.714,4.041-26.333,5.294-39.54,7.848a23.224,23.224,0,0,0-2.32.7Z" transform="translate(-118.01 -118.01)" fill="#fbe566"/>
    <path id="Path_11" data-name="Path 11" d="M572,431.729l.331-.339-.275.388Z" transform="translate(-203.468 -177.978)" fill="#fbe566"/>
  </g>
</svg>
