<svg class="c-weather-icon-svg" xmlns="http://www.w3.org/2000/svg" viewBox="0 0 479.06 479.06">
  <g id="_02d" data-name="02d" transform="translate(3.054 4)">
    <rect id="Rectangle_2" data-name="Rectangle 2" width="479.06" height="479.06" transform="translate(-3.054 -4)" fill="none"/>
    <path id="Path_12" data-name="Path 12" d="M586,308.15c-2.86,4.43-6.93,5.78-12.13,5.58-8.72-.33-17.47,0-26.21-.1-5.92,0-9.41-2.9-9.57-7.66-.18-5,3.18-8.26,9.36-8.37,9.5-.18,19,0,28.51-.07,5.07,0,8.29,2.3,10,6.94Z" transform="translate(-114 -114)" fill="#fcd022"/>
    <path id="Path_13" data-name="Path 13" d="M396.41,114c4.48,2.31,5.85,6,5.71,11-.26,9.18,0,18.36-.1,27.54,0,5.77-3.1,9.31-7.85,9.32s-7.89-3.54-7.93-9.26c-.07-9.18.19-18.37-.1-27.54-.16-4.94,1.34-8.6,5.66-11Z" transform="translate(-114 -114)" fill="#fcd022"/>
    <path id="Path_14" data-name="Path 14" d="M469.1,398.77a97.6,97.6,0,0,0,3,10.05c.39.95,2.51,1.93,3.66,1.75,24.71-3.74,47.17,1.68,67.07,16.73,19.32,14.61,30.8,34,34,58.14,3.59,26.93-3.91,50.45-22,70.7-14,15.71-31.58,24.78-52.24,28a102,102,0,0,1-15.53,1c-96.45.06-192.9-.07-289.34.13-22.55,0-42.21-6.94-58.41-22.4a76.41,76.41,0,0,1-23.64-47c-3.43-27.56,5.38-50.73,25.42-69.5a74.78,74.78,0,0,1,47.51-20.4,11.35,11.35,0,0,0,1.84-.1,9.113,9.113,0,0,0,1.26-.4c-1.15-4.77-2.53-9.54-3.41-14.39-5.34-29.41,1.35-55.85,20.13-79.09,15.3-18.99,35.58-29.51,59.25-33.81,2.38-.43,4.8-.7,7.2-1.05h5.51c35.08.33,62.61,14.88,82.15,44,3.87,5.78,6.64,12.29,10,18.64,1.26-.42,2.56-.8,3.83-1.27,21.21-7.87,41.71-6.38,61.48,4.64C452.49,371.34,462.32,383.72,469.1,398.77Z" transform="translate(-114 -114)" fill="#a2d3f6"/>
    <path id="Path_15" data-name="Path 15" d="M469.1,398.77c-6.78-15-16.61-27.43-31.24-35.59q-29.655-16.5-61.48-4.64c-1.27.47-2.57.85-3.83,1.27-3.38-6.35-6.15-12.86-10-18.64-19.54-29.14-47.07-43.69-82.15-44h-5.51c1.63-25.78,11-48.56,27.47-68.26,18.23-21.82,41.56-35.49,69.51-40.84,66.81-12.78,131,32.78,140.51,100.16,6.19,43.92-8.61,80.37-41.71,109.59a12.365,12.365,0,0,1-1.57.95Z" transform="translate(-114 -114)" fill="#fccf20"/>
    <path id="Path_16" data-name="Path 16" d="M505.3,202.81c-2.34-2-4.95-3.45-6.38-5.65-2.07-3.18-.94-6.53,1.64-9.18,5.14-5.25,10.37-10.41,15.57-15.61s10.14-10.22,15.28-15.25c4.21-4.12,8.71-4.43,12.15-1s3.34,8.05-.75,12.2c-10,10.13-20.06,20.22-30.25,30.16C510.81,200.2,508.27,201.09,505.3,202.81Z" transform="translate(-114 -114)" fill="#fcd025"/>
    <path id="Path_17" data-name="Path 17" d="M290.36,193.09c-.14,6.92-6.82,10.57-12.06,7.4a21.269,21.269,0,0,1-3.87-3.24q-13.86-13.77-27.67-27.63a25.871,25.871,0,0,1-2.75-3.08,8.14,8.14,0,0,1,.83-10.5c2.94-2.76,7.43-3.23,10.44-.28,11.2,10.91,22.21,22,33.17,33.19C289.63,190.15,290,192.19,290.36,193.09Z" transform="translate(-114 -114)" fill="#fcd022"/>
  </g>
</svg>
