<svg class="c-weather-icon-svg" xmlns="http://www.w3.org/2000/svg" viewBox="0 0 479.06 479.06">
  <g id="_02n" data-name="02n" transform="translate(3.04 19.916)">
    <rect id="Rectangle_1" data-name="Rectangle 1" width="479.06" height="479.06" transform="translate(-3.04 -19.916)" fill="none"/>
    <path id="Path_18" data-name="Path 18" d="M550.281,361.331c5.825,8.3,13.048,15.966,17.2,25.035,12.742,27.81,11.314,55.5-5.029,81.614-14.282,22.852-35.614,35.186-62,39.185a30.451,30.451,0,0,1-4.632.071q-153.282,0-306.594-.092c-16.1,0-30.238-6.539-42.847-16.4-15.354-12.059-24.341-27.973-28.2-46.928a22.728,22.728,0,0,0-1.224-3.346V420.96c1.163-4.254,2.193-8.549,3.52-12.752,9.243-29.208,29.259-46.7,58.823-53.549,4.295-1.02,8.784-1.112,13.864-1.714-.8-3.632-1.459-7-2.3-10.314-12.405-49.519,22.373-102.232,73.943-111.526,45.214-8.161,85.552,12.161,105.078,53.978,1.846,3.948,3.224,4.173,7.141,2.836,6.192-2.1,12.793-3,19.23-4.407,1.847,0,3.7.112,5.55.1q30.7-.122,51.968,21.975c8.335,8.692,13.619,19.139,16.823,30.718.306,1.122,1.734,2.775,2.632,2.765,7.733,0,15.466-.541,23.2-.663a60.874,60.874,0,0,1,29.585,7.141C534.59,349.986,542.262,356,550.281,361.331Z" transform="translate(-117 -115.704)" fill="#a2d3f6" stroke="#707070" stroke-width="1"/>
    <path id="Path_19" data-name="Path 19" d="M544.761,362.627c-8.019-5.336-15.69-11.344-24.168-15.823a60.874,60.874,0,0,0-29.585-7.141c-7.733.122-15.466.612-23.2.663-.9,0-2.326-1.642-2.632-2.765-3.2-11.579-8.488-22.026-16.823-30.718q-21.21-22.087-51.968-21.975c-1.847,0-3.7-.061-5.55-.1,0-9.926-.877-19.975.316-29.769,1.785-14.772,7.2-28.565,15.2-41.215,15.935-25.168,37.981-41.542,67.689-46.847a112.382,112.382,0,0,1,48.571,1.755c-2.479,1.377-3.979,2.224-5.5,3.061-23.546,12.956-37.6,32.646-41.878,59.17-2.163,13.436-1.306,26.729,3.8,39.379,8.039,19.883,21.873,34.39,41.725,42.98,18.751,8.161,37.461,8.019,56.181,0,2.8-1.183,5.387-2.846,9.365-4.978-1.591,4.407-2.53,7.713-3.948,10.793-8.1,17.669-20.067,32.054-36.6,42.48a5.959,5.959,0,0,0-.99,1.051Z" transform="translate(-111.48 -117)" fill="#fbe566" stroke="#707070" stroke-width="1"/>
  </g>
</svg>
