<svg class="c-weather-icon-svg" xmlns="http://www.w3.org/2000/svg" viewBox="0 0 479.06 479.06">
  <g id="_03n" data-name="03n" transform="translate(-3.008 90.519)">
    <rect id="Rectangle_16" data-name="Rectangle 16" width="479.06" height="479.06" transform="translate(3.008 -90.519)" fill="none"/>
    <path id="Path_21" data-name="Path 21" d="M205.757,503.82h-.5a3.654,3.654,0,0,0-1.193-.467c-3.9,0-7.8-.073-11.706,0a43.823,43.823,0,0,1-10.762-1.359,71.4,71.4,0,0,1-22.364-9.911,93.607,93.607,0,0,1-21.191-18.171,80.22,80.22,0,0,1-9.34-13.564,81.921,81.921,0,0,1-8.447-24.647,84.472,84.472,0,0,1-1.2-12.453,78.444,78.444,0,0,1,2.293-21.606,75.072,75.072,0,0,1,8.831-21.129,156.507,156.507,0,0,1,9.143-12.775,65.887,65.887,0,0,1,12.007-11.6,78.7,78.7,0,0,1,16.366-9.776,76.8,76.8,0,0,1,16.967-5.469c3.964-.758,7.991-1.2,11.986-1.754.924-.135,1.6-.342,1.339-1.526-.56-2.574-1.038-5.189-1.609-7.721-.6-2.864-1.411-5.7-1.764-8.582a128.839,128.839,0,0,1-1.038-12.941c-.135-6.683-.374-13.408,1.162-20,1.038-4.3,1.878-8.645,3.113-12.858a92,92,0,0,1,8.6-19.624,96.606,96.606,0,0,1,14.622-19.323c2.7-2.74,5.583-5.293,8.51-7.783a88.76,88.76,0,0,1,16.6-11.042,100.04,100.04,0,0,1,17.206-7.046,90.941,90.941,0,0,1,23.1-4.151,147.359,147.359,0,0,1,16.853.477,88.026,88.026,0,0,1,11.831,1.9,92.361,92.361,0,0,1,25.571,10.014,100.03,100.03,0,0,1,22.3,16.822A77.226,77.226,0,0,1,373.833,249c2.553,4.047,4.857,8.3,7.119,12.453,1.266,2.356,2.19,4.909,3.331,7.337a2.356,2.356,0,0,0,3.113,1.474c1.443-.353,2.9-.674,4.307-1.142a84.32,84.32,0,0,1,20.755-4.151,71.8,71.8,0,0,1,17.2.747,70,70,0,0,1,23.2,8.468,78.019,78.019,0,0,1,21.98,18.5,67.029,67.029,0,0,1,11.415,21.056c.716,2.159,1.2,4.379,1.816,6.569.457,1.65,1.038,3.217,3.041,3.5a11.023,11.023,0,0,0,2.615,0c3.445-.291,6.88-.851,10.326-.882,4.753-.052,9.516.083,14.249.5a82.623,82.623,0,0,1,11.706,1.9,84.565,84.565,0,0,1,21.793,8.593,90.636,90.636,0,0,1,19.074,14.238,92.154,92.154,0,0,1,10.263,11.913,85.676,85.676,0,0,1,11.592,21.793,114.268,114.268,0,0,1,3.383,12.8,91.034,91.034,0,0,1,1.951,19.78c0,1.609-.114,3.217-.249,4.815-.228,2.75-.425,5.511-.82,8.24a74.322,74.322,0,0,1-2.771,11.654,101.025,101.025,0,0,1-9.724,22.1,80.945,80.945,0,0,1-17.5,20.6,89.524,89.524,0,0,1-15.816,10.627,91.864,91.864,0,0,1-19.935,7.908,84.311,84.311,0,0,1-15.058,2.854c-7.586.529-15.245.363-22.831.353q-100.663-.073-201.233-.208H207.241a5.512,5.512,0,0,0-1.484.436Z" transform="translate(-116 -206)" fill="#a1d2f5"/>
  </g>
</svg>
