<svg class="c-weather-icon-svg" xmlns="http://www.w3.org/2000/svg" viewBox="0 0 479.06 479.06">
  <g id="_04d" data-name="04d" transform="translate(0.55 48.75)">
    <rect id="Rectangle_6" data-name="Rectangle 6" width="479.06" height="479.06" transform="translate(-0.55 -48.75)" fill="none"/>
    <path id="Path_22" data-name="Path 22" d="M287.64,533.927v-.217H458.584v.217Z" transform="translate(-113.531 -154.051)" fill="#ebf5fc"/>
    <path id="Path_23" data-name="Path 23" d="M464.026,543.071H278.483c-24.894,0-49.788.062-74.682-.052A90.017,90.017,0,0,1,183,540.49a83.975,83.975,0,0,1-20.134-7.61,82.787,82.787,0,0,1-14.62-9.984,81.083,81.083,0,0,1-15.581-17.852,83,83,0,0,1-11.471-28.425,82.1,82.1,0,0,1,4.925-47.857c1.342-3.18,2.437-6.453,3.624-9.685a3.274,3.274,0,0,0,.083-.847,6.887,6.887,0,0,0,1.177-.888c1.8-2.137,3.624-4.264,5.328-6.474a84.359,84.359,0,0,1,14.951-15.147,79.607,79.607,0,0,1,17.966-10.532,92.542,92.542,0,0,1,23.294-6.2c2.065-.289,4.13-.681,6.2-1.032-.083-.361-.114-.558-.165-.754-1.033-3.645-2.065-7.279-2.974-10.955a96.677,96.677,0,0,1-2.55-20.516c-.052-2.22.093-4.44.217-6.66.134-2.426.2-4.863.558-7.228a101.538,101.538,0,0,1,5.111-20.3,103.561,103.561,0,0,1,21.043-34.641,90.211,90.211,0,0,1,15.684-13.423,107.932,107.932,0,0,1,22.715-11.544,95.641,95.641,0,0,1,28.983-6,90.024,90.024,0,0,1,15.9.661,91.346,91.346,0,0,1,16.52,3.552,105.318,105.318,0,0,1,32.184,16.52,94.115,94.115,0,0,1,17.6,17.553,104.544,104.544,0,0,1,13.825,24.326c1.032,2.571,1.084,2.592,3.645,1.487a71.708,71.708,0,0,1,26.216-5.813,66.326,66.326,0,0,1,11.43.764,83.242,83.242,0,0,1,17.171,4.409,71.151,71.151,0,0,1,23.139,13.732,69.788,69.788,0,0,1,15.137,19.7,87.972,87.972,0,0,1,6.784,17.222c.7,2.488,1.869,3.418,4.5,3.294,3.531-.165,7.042-.568,10.573-.681,3.986-.134,7.992-.227,11.967,0A76.315,76.315,0,0,1,524.274,364a86.577,86.577,0,0,1,42.23,21.332,107.084,107.084,0,0,1,13.877,15.9c2.117,2.891,4.326,5.71,6.494,8.549.485,1.569,1.033,3.1,1.435,4.708,1.6,6.2,3.1,12.328,4.729,18.492a87.165,87.165,0,0,1,2.891,16.1c.176,2.695-.083,5.431-.165,8.136a41.246,41.246,0,0,1-.279,5.431c-.754,4.564-1.456,9.158-2.581,13.64a79.32,79.32,0,0,1-6.629,17.119,82.51,82.51,0,0,1-10.8,16.293c-2.127,2.457-4.2,4.977-6.526,7.228a93.24,93.24,0,0,1-19.99,14.9,91.336,91.336,0,0,1-26.742,9.417,85.56,85.56,0,0,1-10.119,1.3c-15.157,1.033-30.346.268-45.513.506C465.761,543.061,464.873,543.061,464.026,543.071Z" transform="translate(-118.994 -163.412)" fill="#a1d2f5"/>
    <path id="Path_24" data-name="Path 24" d="M586.923,412.361c-2.168-2.839-4.378-5.658-6.495-8.549a107.082,107.082,0,0,0-13.877-15.9,86.576,86.576,0,0,0-42.23-21.332A76.309,76.309,0,0,0,514,365.247c-3.975-.217-7.981-.124-11.967,0-3.531.114-7.042.516-10.573.681-2.633.124-3.8-.805-4.5-3.294a87.97,87.97,0,0,0-6.784-17.222,69.789,69.789,0,0,0-15.137-19.7A71.149,71.149,0,0,0,441.9,311.98a83.245,83.245,0,0,0-17.171-4.409,66.326,66.326,0,0,0-11.43-.764,71.708,71.708,0,0,0-26.247,5.8c-2.561,1.1-2.592,1.084-3.645-1.487A104.541,104.541,0,0,0,369.578,286.8a94.116,94.116,0,0,0-17.6-17.553,105.316,105.316,0,0,0-32.184-16.52,91.345,91.345,0,0,0-16.52-3.552,90.026,90.026,0,0,0-15.9-.661,95.644,95.644,0,0,0-28.983,6,107.928,107.928,0,0,0-22.715,11.544A90.211,90.211,0,0,0,220,279.424a103.562,103.562,0,0,0-21.043,34.641,101.54,101.54,0,0,0-5.111,20.3c-.361,2.4-.423,4.832-.558,7.228-.124,2.22-.268,4.44-.217,6.66a96.673,96.673,0,0,0,2.55,20.516c.888,3.676,1.982,7.31,2.974,10.955.052.2.083.392.165.754-2.065.351-4.13.743-6.2,1.033a92.547,92.547,0,0,0-23.294,6.2A79.611,79.611,0,0,0,151.3,398.236a84.357,84.357,0,0,0-14.951,15.2c-1.7,2.21-3.531,4.337-5.328,6.474a6.888,6.888,0,0,1-1.177.888c-1.528-3.418-3.3-6.753-4.522-10.325a146.4,146.4,0,0,1-4.275-14.507,72.111,72.111,0,0,1-1.311-10.325,58.017,58.017,0,0,1-.206-8.88,108.837,108.837,0,0,1,1.549-12.39,78.018,78.018,0,0,1,16.52-34.827,81.2,81.2,0,0,1,29-23.025,84.8,84.8,0,0,1,23.149-6.866c2.664-.4,5.359-.558,8.033-.785.785-.072,1.033-.32.8-1.094-1.1-3.965-2.272-7.919-3.232-11.926A59.255,59.255,0,0,1,194.039,278c-.423-4.326-.774-8.663-.919-13.01a79.749,79.749,0,0,1,.382-8.869c.227-2.674.568-5.359,1.033-8.012a88.528,88.528,0,0,1,4.419-16.3,106.927,106.927,0,0,1,15.488-27.878,93.247,93.247,0,0,1,29.478-25.245,100.887,100.887,0,0,1,28.911-10.387c3.862-.785,7.826-1.125,11.75-1.559a65.052,65.052,0,0,1,7.228-.485,66.525,66.525,0,0,1,7.713.485,123.753,123.753,0,0,1,12.669,1.755,101.424,101.424,0,0,1,40.144,18.658A88.8,88.8,0,0,1,365.4,199.3a93.62,93.62,0,0,1,12.566,18c2.354,4.491,4.471,9.1,6.773,13.815a8.58,8.58,0,0,0,1.033-.33,80.3,80.3,0,0,1,17.9-5.163c2.9-.454,5.854-.6,8.8-.867a21.921,21.921,0,0,1,3.665-.227c3.459.248,6.928.516,10.325.971,13.185,1.735,24.78,7.228,35.188,15.3a67.692,67.692,0,0,1,21.683,28.766c1.714,4.233,2.932,8.663,4.326,13.02.268.805.361,1.229,1.466.96a32.125,32.125,0,0,1,5.1-.558c3.872-.268,7.754-.733,11.626-.692,4.037,0,8.074.589,12.111.929a74.567,74.567,0,0,1,19.194,4.605,88.507,88.507,0,0,1,28.436,16.9,90.347,90.347,0,0,1,22.385,29.943,78.471,78.471,0,0,1,6.536,20.805,112.223,112.223,0,0,1,1.033,11.637,80.051,80.051,0,0,1,0,9.83c-.268,3.552-.857,7.083-1.446,10.594-1.4,8.363-4.626,16.211-6.908,24.336a5.392,5.392,0,0,1-.268.485Z" transform="translate(-119 -166)" fill="#60a1d5"/>
  </g>
</svg>
