<svg class="c-weather-icon-svg" xmlns="http://www.w3.org/2000/svg" viewBox="0 0 479.06 479.06">
  <g id="_04n" data-name="04n" transform="translate(-0.45 47.75)">
    <rect id="Rectangle_13" data-name="Rectangle 13" width="479.06" height="479.06" transform="translate(0.45 -47.75)" fill="none"/>
    <path id="Path_25" data-name="Path 25" d="M287.64,533.928v-.218H459.485v.218Z" transform="translate(-112.615 -152.05)" fill="#ebf5fc"/>
    <path id="Path_26" data-name="Path 26" d="M465.843,544.639H279.321c-25.025,0-50.051.062-75.076-.052a90.492,90.492,0,0,1-20.915-2.543,84.418,84.418,0,0,1-20.24-7.65,83.224,83.224,0,0,1-14.7-10.037,81.512,81.512,0,0,1-15.663-17.946A83.442,83.442,0,0,1,121.2,477.835a82.528,82.528,0,0,1,4.951-48.11c1.349-3.2,2.45-6.487,3.643-9.736a3.291,3.291,0,0,0,.083-.851,6.923,6.923,0,0,0,1.183-.893c1.806-2.149,3.643-4.287,5.356-6.508a84.8,84.8,0,0,1,15.03-15.227A80.028,80.028,0,0,1,169.5,385.923,93.03,93.03,0,0,1,192.92,379.7c2.076-.291,4.152-.685,6.228-1.038-.083-.363-.114-.561-.166-.758-1.038-3.664-2.076-7.318-2.989-11.013a97.187,97.187,0,0,1-2.564-20.624c-.052-2.232.093-4.463.218-6.695.135-2.439.2-4.889.56-7.266a102.071,102.071,0,0,1,5.138-20.406A104.108,104.108,0,0,1,220.5,277.072a90.688,90.688,0,0,1,15.767-13.494,108.5,108.5,0,0,1,22.835-11.6,96.146,96.146,0,0,1,29.136-6.031,90.5,90.5,0,0,1,15.985.664,91.826,91.826,0,0,1,16.607,3.571,105.873,105.873,0,0,1,32.353,16.607,94.612,94.612,0,0,1,17.7,17.645,105.094,105.094,0,0,1,13.9,24.454c1.038,2.585,1.09,2.605,3.664,1.495a72.086,72.086,0,0,1,26.354-5.844,66.679,66.679,0,0,1,11.49.768,83.684,83.684,0,0,1,17.261,4.432,71.526,71.526,0,0,1,23.261,13.8,70.156,70.156,0,0,1,15.217,19.8,88.434,88.434,0,0,1,6.819,17.313c.706,2.5,1.879,3.436,4.526,3.311,3.55-.166,7.079-.571,10.629-.685,4.007-.135,8.034-.228,12.03,0a76.714,76.714,0,0,1,10.38,1.339,87.034,87.034,0,0,1,42.453,21.444,107.651,107.651,0,0,1,13.95,15.985c2.128,2.906,4.349,5.74,6.529,8.594.488,1.578,1.038,3.114,1.443,4.733,1.609,6.228,3.114,12.393,4.754,18.59a87.62,87.62,0,0,1,2.906,16.182c.176,2.709-.083,5.46-.166,8.179a41.459,41.459,0,0,1-.28,5.46c-.758,4.588-1.463,9.207-2.595,13.712a79.74,79.74,0,0,1-6.664,17.209,82.943,82.943,0,0,1-10.857,16.379c-2.138,2.47-4.225,5-6.56,7.266a93.728,93.728,0,0,1-20.095,14.978,91.818,91.818,0,0,1-26.883,9.466,86.01,86.01,0,0,1-10.172,1.308c-15.237,1.038-30.506.27-45.754.509C467.587,544.628,466.694,544.628,465.843,544.639Z" transform="translate(-118.993 -162.978)" fill="#a1d2f5"/>
    <path id="Path_27" data-name="Path 27" d="M589.388,413.659c-2.18-2.854-4.4-5.688-6.529-8.594a107.645,107.645,0,0,0-13.95-15.985,87.033,87.033,0,0,0-42.453-21.444,76.713,76.713,0,0,0-10.38-1.339c-4-.218-8.023-.125-12.03,0-3.55.114-7.079.519-10.629.685-2.647.125-3.82-.81-4.526-3.311a88.434,88.434,0,0,0-6.819-17.313,70.156,70.156,0,0,0-15.217-19.8,71.525,71.525,0,0,0-23.261-13.8,83.682,83.682,0,0,0-17.261-4.432,66.675,66.675,0,0,0-11.49-.768,72.086,72.086,0,0,0-26.385,5.833c-2.574,1.111-2.605,1.09-3.664-1.495a105.093,105.093,0,0,0-13.9-24.454,94.61,94.61,0,0,0-17.7-17.645,105.873,105.873,0,0,0-32.353-16.607,91.827,91.827,0,0,0-16.607-3.571,90.5,90.5,0,0,0-15.985-.664,96.148,96.148,0,0,0-29.136,6.031,108.5,108.5,0,0,0-22.835,11.6,90.688,90.688,0,0,0-15.756,13.442,104.108,104.108,0,0,0-21.154,34.824,102.073,102.073,0,0,0-5.138,20.406c-.363,2.408-.426,4.858-.561,7.266-.125,2.232-.27,4.463-.218,6.695a97.183,97.183,0,0,0,2.564,20.624c.893,3.7,1.993,7.349,2.989,11.013.052.2.083.394.166.758-2.076.353-4.152.747-6.228,1.038a93.035,93.035,0,0,0-23.416,6.228,80.03,80.03,0,0,0-18.061,10.587,84.8,84.8,0,0,0-15.03,15.279c-1.713,2.221-3.55,4.36-5.356,6.508a6.925,6.925,0,0,1-1.183.893c-1.536-3.436-3.322-6.788-4.546-10.38a147.179,147.179,0,0,1-4.3-14.583,72.49,72.49,0,0,1-1.318-10.38,58.321,58.321,0,0,1-.208-8.927,109.41,109.41,0,0,1,1.557-12.456A78.429,78.429,0,0,1,137.7,330.4a81.625,81.625,0,0,1,29.156-23.147,85.248,85.248,0,0,1,23.271-6.9c2.678-.4,5.387-.56,8.075-.789.789-.073,1.038-.322.8-1.1-1.111-3.986-2.284-7.961-3.249-11.988a59.568,59.568,0,0,1-1.318-7.889c-.426-4.349-.778-8.709-.924-13.078a80.17,80.17,0,0,1,.384-8.916c.228-2.688.571-5.387,1.038-8.055a89,89,0,0,1,4.442-16.389,107.491,107.491,0,0,1,15.569-28.025,93.738,93.738,0,0,1,29.634-25.378,101.42,101.42,0,0,1,29.063-10.442c3.882-.789,7.868-1.131,11.812-1.567a65.394,65.394,0,0,1,7.266-.488,66.878,66.878,0,0,1,7.754.488,124.407,124.407,0,0,1,12.736,1.764,101.959,101.959,0,0,1,40.356,18.756,89.261,89.261,0,0,1,13.13,12.217,94.111,94.111,0,0,1,12.632,18.092c2.367,4.515,4.494,9.144,6.809,13.888a8.627,8.627,0,0,0,1.038-.332,80.721,80.721,0,0,1,18-5.19c2.917-.457,5.885-.6,8.843-.872a22.035,22.035,0,0,1,3.685-.228c3.477.249,6.965.519,10.38.976,13.255,1.744,24.911,7.266,35.374,15.383a68.049,68.049,0,0,1,21.8,28.918c1.723,4.256,2.948,8.709,4.349,13.089.27.81.363,1.235,1.474.965a32.294,32.294,0,0,1,5.128-.56c3.892-.27,7.8-.737,11.687-.7,4.058,0,8.117.592,12.175.934a74.96,74.96,0,0,1,19.3,4.629,88.975,88.975,0,0,1,28.586,16.992,90.822,90.822,0,0,1,22.5,30.1,78.884,78.884,0,0,1,6.57,20.915,112.831,112.831,0,0,1,1.038,11.7,80.483,80.483,0,0,1,0,9.881c-.27,3.571-.862,7.12-1.453,10.65-1.412,8.408-4.65,16.3-6.944,24.465a5.421,5.421,0,0,1-.27.488Z" transform="translate(-119 -166)" fill="#60a1d5"/>
  </g>
</svg>
