<svg class="c-weather-icon-svg" xmlns="http://www.w3.org/2000/svg" viewBox="0 0 480.23 479.06">
  <g id="_09d" data-name="09d" transform="translate(0 47.901)">
    <rect id="Rectangle_10" data-name="Rectangle 10" width="479.06" height="479.06" transform="translate(1 -47.901)" fill="none"/>
    <path id="Path_28" data-name="Path 28" d="M599.23,364.927V381.65c-.166.25-.447.489-.468.749a83.73,83.73,0,0,1-3.432,16.9,92.559,92.559,0,0,1-9.36,21.226,81.549,81.549,0,0,1-14.706,18.19c-2.506,2.288-5.034,4.566-7.686,6.677A86.859,86.859,0,0,1,539.721,458.8a92.873,92.873,0,0,1-32.022,5.449c-14.175.114-28.34,0-42.5.073a45.189,45.189,0,0,0-6.6.978,448.307,448.307,0,0,0-25.1-50.9c-.343.676-.562,1.04-.759,1.477q-7.176,14.966-14.362,29.9c-2.974,6.178-5.99,12.334-8.986,18.5H285.483L268.167,431.2c-.333.541-.572.874-.759,1.227q-4.8,9.235-9.62,18.47-3.474,6.677-7.02,13.343H221.721c-9.36,0-18.72.312-27.976-.759-3.6-.416-7.207-.946-10.764-1.685a73.9,73.9,0,0,1-21.226-7.966,79.111,79.111,0,0,1-16.463-12.116c-2.361-2.267-4.545-4.711-6.7-7.176a73.717,73.717,0,0,1-9.7-14.414,78.071,78.071,0,0,1-5.928-14.487,96.721,96.721,0,0,1-3.494-18.522,3.214,3.214,0,0,0-.468-1.04v-7.738c.156-.25.426-.489.468-.749.437-3.12.8-6.323,1.269-9.485a75.983,75.983,0,0,1,8.746-25.511,85.28,85.28,0,0,1,18.21-22.88A82.428,82.428,0,0,1,163.72,308.6a78.281,78.281,0,0,1,22.984-7.831c3.661-.676,7.332-1.331,10.982-2.08.655-.125,1.612-.083,1.29-1.3-.572-2.2-1.04-4.441-1.654-6.635a103.345,103.345,0,0,1-3.723-24.742,52.939,52.939,0,0,1,.489-8.8c.738-5.366,1.5-10.743,2.694-16.016a95.451,95.451,0,0,1,24.45-44.616c2.506-2.579,5.262-4.919,7.987-7.28a98.414,98.414,0,0,1,18.949-12.73,93.068,93.068,0,0,1,17.68-6.989,85.278,85.278,0,0,1,19.916-3.338,112.4,112.4,0,0,1,24.274,1.394,99.34,99.34,0,0,1,25.646,8.133,94.837,94.837,0,0,1,19.76,12.646A108.219,108.219,0,0,1,368.6,201.283,86.613,86.613,0,0,1,380.965,220c1.373,2.881,2.631,5.824,4,8.715a2.662,2.662,0,0,0,3.546,1.622c1.851-.593,3.63-1.4,5.47-2.08a63,63,0,0,1,20.519-3.214,94.545,94.545,0,0,1,19.313,1.342,66.237,66.237,0,0,1,23.66,9.776,79.334,79.334,0,0,1,15.6,13.582,73.841,73.841,0,0,1,10.4,15.049,74.883,74.883,0,0,1,5.814,15.34,4.42,4.42,0,0,0,4.784,3.63c6.053-.135,12.106-.447,18.158-.437a107.272,107.272,0,0,1,12.386.728,67.651,67.651,0,0,1,21.528,6.625A97.49,97.49,0,0,1,568.914,305.7,91.173,91.173,0,0,1,580.2,317.607a89.983,89.983,0,0,1,11.378,19.23,88.266,88.266,0,0,1,6.947,25.22A21.111,21.111,0,0,0,599.23,364.927ZM383.95,415.2a33.925,33.925,0,0,0-1.394-10.6c-3.9-15.423-9.942-30.046-16.827-44.325-4.243-8.8-8.736-17.472-13.156-26.177a2.4,2.4,0,0,0-1.29-1.04c-.874-.27-1.04.572-1.342,1.154-2.735,5.782-5.512,11.544-8.2,17.358-6.4,13.842-12.834,27.664-19.094,41.6-3.515,7.831-5.481,16.016-4.566,24.71a33.343,33.343,0,0,0,8.486,19.552c8.32,9.048,18.512,12.48,30.618,10.182,16.151-3.11,27.227-16.536,26.738-32.417Z" transform="translate(-119 -166)" fill="#ced8d7"/>
    <path id="Path_29" data-name="Path 29" d="M447.748,455.746c1.258,4.16,2.558,8.32,3.744,12.48,1.279,4.451,2.631,8.9,3.6,13.437a33.989,33.989,0,0,1-.125,13.967,31.565,31.565,0,0,1-6.146,13.281,32.147,32.147,0,0,1-20.03,12.189,30.514,30.514,0,0,1-12.542,0,32.676,32.676,0,0,1-13.354-6.333,34.319,34.319,0,0,1-12.158-18.47,32.436,32.436,0,0,1-.749-10.941,63.5,63.5,0,0,1,2.673-13.416c1.331-4.358,3.12-8.59,4.628-12.886.5-1.394.842-2.85,1.258-4.274,3-6.167,6.011-12.324,8.986-18.5q7.186-14.945,14.362-29.9c.2-.406.416-.8.759-1.477a448.319,448.319,0,0,1,25.1,50.846Z" transform="translate(-108.168 -156.448)" fill="#60a1d5"/>
    <path id="Path_30" data-name="Path 30" d="M281.009,454.1c.655,1.768,1.31,3.557,1.976,5.325,3.12,8.185,6.313,16.328,9.256,24.565a86.115,86.115,0,0,1,3.026,11.211,53.04,53.04,0,0,1,1.352,9.87c.135,6.5-2.226,12.314-5.907,17.586-4.732,6.77-10.816,11.658-19,13.707a34.318,34.318,0,0,1-11.794,1.04A29.712,29.712,0,0,1,247,532.933a36.275,36.275,0,0,1-15.142-18.98,29.61,29.61,0,0,1-1.758-11.18c.166-5.2,1.706-10.13,3.567-14.966,4.087-10.587,8.1-21.2,12.126-31.8a18.038,18.038,0,0,0,.53-1.914q3.526-6.677,7.02-13.343,4.836-9.235,9.62-18.47c.187-.354.426-.686.759-1.227Z" transform="translate(-114.557 -155.802)" fill="#60a2d5"/>
    <path id="Path_31" data-name="Path 31" d="M376.282,408.784c.489,15.881-10.587,29.307-26.759,32.344-12.106,2.278-22.339-1.134-30.618-10.182a33.342,33.342,0,0,1-8.486-19.552c-.915-8.694,1.04-16.879,4.566-24.71,6.24-13.9,12.7-27.726,19.094-41.6,2.683-5.814,5.46-11.575,8.2-17.358.281-.582.468-1.425,1.342-1.154a2.4,2.4,0,0,1,1.29,1.04c4.42,8.7,8.913,17.378,13.156,26.177,6.885,14.279,12.927,28.9,16.827,44.325a33.925,33.925,0,0,1,1.394,10.67Z" transform="translate(-111.353 -159.583)" fill="#60a1d5"/>
  </g>
</svg>
