<svg class="c-weather-icon-svg" xmlns="http://www.w3.org/2000/svg" viewBox="0 0 479.06 479.06">
  <g id="_09n" data-name="09n" transform="translate(3 50.901)">
    <rect id="Rectangle_14" data-name="Rectangle 14" width="479.06" height="479.06" transform="translate(-3 -50.901)" fill="none"/>
    <path id="Path_32" data-name="Path 32" d="M593.862,362.7v16.536c-.164.247-.442.483-.463.74a82.794,82.794,0,0,1-3.394,16.711,91.526,91.526,0,0,1-9.255,20.989,80.638,80.638,0,0,1-14.541,17.986c-2.478,2.262-4.977,4.515-7.6,6.6a85.889,85.889,0,0,1-23.591,13.256,91.834,91.834,0,0,1-31.664,5.389c-14.017.113-28.023,0-42.03.072a44.688,44.688,0,0,0-6.53.967,443.3,443.3,0,0,0-24.815-50.329c-.339.668-.555,1.028-.751,1.46q-7.1,14.8-14.2,29.566c-2.941,6.109-5.923,12.2-8.885,18.295H283.622L266.5,428.233c-.329.535-.566.864-.751,1.213q-4.751,9.132-9.512,18.264-3.435,6.6-6.942,13.194H220.573c-9.255,0-18.511.309-27.663-.751-3.558-.411-7.127-.936-10.644-1.666a73.077,73.077,0,0,1-20.989-7.877A78.228,78.228,0,0,1,145,438.63c-2.334-2.242-4.494-4.659-6.623-7.1a72.893,72.893,0,0,1-9.595-14.253,77.2,77.2,0,0,1-5.862-14.325,95.64,95.64,0,0,1-3.455-18.315,3.177,3.177,0,0,0-.463-1.028V375.96c.154-.247.422-.483.463-.74.432-3.085.792-6.253,1.255-9.379a75.133,75.133,0,0,1,8.649-25.226,84.328,84.328,0,0,1,18.007-22.624,81.509,81.509,0,0,1,15.847-10.983,77.407,77.407,0,0,1,22.727-7.744c3.62-.668,7.25-1.316,10.86-2.057.648-.123,1.594-.082,1.275-1.285-.566-2.18-1.028-4.391-1.635-6.561a102.19,102.19,0,0,1-3.682-24.465,52.347,52.347,0,0,1,.483-8.7c.73-5.306,1.481-10.623,2.663-15.837a94.384,94.384,0,0,1,24.177-44.117c2.478-2.55,5.2-4.864,7.9-7.2a97.314,97.314,0,0,1,18.737-12.587,92.027,92.027,0,0,1,17.482-6.911,84.325,84.325,0,0,1,19.693-3.3,111.146,111.146,0,0,1,24,1.378,98.23,98.23,0,0,1,25.36,8.042A93.778,93.778,0,0,1,352.8,188.169,107.008,107.008,0,0,1,365.81,200.89,85.644,85.644,0,0,1,378.037,219.4c1.357,2.849,2.6,5.759,3.959,8.618a2.633,2.633,0,0,0,3.507,1.6c1.831-.586,3.589-1.388,5.409-2.057a62.3,62.3,0,0,1,20.29-3.178,93.488,93.488,0,0,1,19.1,1.327,65.5,65.5,0,0,1,23.4,9.667,78.446,78.446,0,0,1,15.426,13.431A73.015,73.015,0,0,1,479.4,263.693a74.044,74.044,0,0,1,5.749,15.169,4.371,4.371,0,0,0,4.731,3.589c5.985-.134,11.97-.442,17.955-.432a106.071,106.071,0,0,1,12.248.72,66.9,66.9,0,0,1,21.287,6.551,96.4,96.4,0,0,1,22.511,14.85,90.155,90.155,0,0,1,11.158,11.775,88.976,88.976,0,0,1,11.25,19.015,87.279,87.279,0,0,1,6.87,24.938A20.879,20.879,0,0,0,593.862,362.7ZM380.989,412.416a33.546,33.546,0,0,0-1.378-10.479c-3.856-15.251-9.831-29.71-16.639-43.829-4.2-8.7-8.638-17.277-13.009-25.884a2.376,2.376,0,0,0-1.275-1.028c-.864-.267-1.028.566-1.327,1.141-2.7,5.718-5.45,11.415-8.1,17.164-6.325,13.688-12.69,27.355-18.881,41.135-3.476,7.744-5.42,15.837-4.515,24.434a32.97,32.97,0,0,0,8.392,19.333c8.227,8.947,18.305,12.34,30.275,10.068,15.971-3.075,26.923-16.351,26.439-32.054Z" transform="translate(-119 -166)" fill="#ced8d7"/>
    <path id="Path_33" data-name="Path 33" d="M447.1,455.177c1.244,4.114,2.53,8.227,3.7,12.341,1.265,4.4,2.6,8.8,3.558,13.287a33.608,33.608,0,0,1-.123,13.811,31.211,31.211,0,0,1-6.078,13.132A31.787,31.787,0,0,1,428.353,519.8a30.171,30.171,0,0,1-12.4,0,32.311,32.311,0,0,1-13.2-6.263,33.936,33.936,0,0,1-12.022-18.264,32.076,32.076,0,0,1-.74-10.819,62.788,62.788,0,0,1,2.643-13.266c1.316-4.309,3.085-8.494,4.576-12.742.494-1.378.833-2.818,1.244-4.227,2.962-6.1,5.944-12.186,8.885-18.295q7.106-14.778,14.2-29.566c.2-.4.411-.792.751-1.46A443.309,443.309,0,0,1,447.1,455.177Z" transform="translate(-111.316 -159.224)" fill="#60a1d5"/>
    <path id="Path_34" data-name="Path 34" d="M280.439,453.732c.648,1.748,1.3,3.517,1.954,5.265,3.085,8.093,6.242,16.146,9.153,24.29a85.158,85.158,0,0,1,2.993,11.086,52.448,52.448,0,0,1,1.337,9.759c.134,6.427-2.2,12.176-5.841,17.39-4.679,6.695-10.7,11.528-18.788,13.554a33.934,33.934,0,0,1-11.662,1.028,29.379,29.379,0,0,1-12.772-4.422,35.869,35.869,0,0,1-14.973-18.768A29.278,29.278,0,0,1,230.1,501.86c.165-5.142,1.687-10.016,3.527-14.8,4.042-10.469,8.011-20.958,11.991-31.448a17.833,17.833,0,0,0,.524-1.892q3.486-6.6,6.942-13.194,4.782-9.132,9.512-18.264c.185-.35.422-.679.751-1.213Z" transform="translate(-115.848 -158.766)" fill="#60a2d5"/>
    <path id="Path_35" data-name="Path 35" d="M375.543,407.864c.483,15.7-10.469,28.98-26.46,31.982-11.97,2.252-22.09-1.121-30.275-10.068a32.97,32.97,0,0,1-8.392-19.333c-.9-8.6,1.028-16.691,4.515-24.434,6.17-13.749,12.556-27.416,18.881-41.135,2.653-5.749,5.4-11.446,8.1-17.164.278-.576.463-1.409,1.327-1.141a2.376,2.376,0,0,1,1.275,1.028c4.371,8.608,8.813,17.184,13.009,25.884,6.808,14.12,12.783,28.579,16.639,43.829a33.546,33.546,0,0,1,1.378,10.551Z" transform="translate(-113.575 -161.448)" fill="#60a1d5"/>
  </g>
</svg>
