<svg class="c-weather-icon-svg" xmlns="http://www.w3.org/2000/svg" viewBox="0 0 479.06 479.06">
  <g id="_10d" data-name="10d" transform="translate(-0.931 -0.135)">
    <rect id="Rectangle_11" data-name="Rectangle 11" width="479.06" height="479.06" transform="translate(0.931 0.135)" fill="none"/>
    <path id="Path_36" data-name="Path 36" d="M586.542,292.675c-2.837,4.261-6.824,5.848-11.888,5.5-3.854-.264-7.759.092-11.624-.1-5.359-.264-8.97-3.712-8.97-8.207s3.61-7.983,8.97-8.207c4.8-.2,9.61,0,14.421-.061,4.19-.051,6.753,2.492,9.092,5.461Z" transform="translate(-106.55 -111.431)" fill="#fcd127"/>
    <path id="Path_37" data-name="Path 37" d="M244.064,493.977c-17.288,0-34.577.071-51.926,0-37.963-.254-69.489-26.441-76.059-63.692-7.21-40.933,20.339-80.34,60.408-87.845,4.546-.844,9.153-1.414,13.912-2.136-1.2-5.756-2.593-11.268-3.488-16.851-3.407-21.356,1.139-41.258,12.021-59.6,12.336-20.8,30.4-34.994,53.564-41.838,29.919-8.837,57.8-3.681,83.31,14.309,1.271.895,2.6,1.688,3.915,2.532,4.6,4.841,9.753,9.285,13.658,14.644,5.553,7.6,10.17,15.875,15.254,23.939,43.526-18.021,88.039,7.312,97.954,48.987a25.172,25.172,0,0,0,3.61,0c11.044-1.566,22.129-1.841,32.919,1.017,8.207,2.207,16.1,5.542,24.132,8.37,3.814,2.909,7.688,5.746,11.431,8.746,33.56,26.9,40.963,76.069,16.76,111.693-14.746,21.7-35.187,34.668-61.374,36.712-18.112,1.4-36.387.753-54.591,1.017-7.465-16.109-14.3-32.543-23.726-47.645l-1.566-.234-22.9,47.8q-53.563,0-107.107.112a35.588,35.588,0,0,0-5.766,1.017L261.3,460.956C255.058,472.906,249.556,483.431,244.064,493.977Zm91.618-129-1.82.1c-.885,1.4-1.892,2.746-2.634,4.231-4.912,9.722-10.353,19.231-14.492,29.268-5.248,12.732-10.424,25.638-13.841,38.929-5.746,22.373,12.722,40.2,31.851,40,18.865-.214,35.97-18.9,31.129-39.143a149.5,149.5,0,0,0-7.587-24.407C351.161,397.467,343.259,381.287,335.682,364.975Z" transform="translate(-114 -112.513)" fill="#a2d3f6"/>
    <path id="Path_38" data-name="Path 38" d="M523.518,336.328c-8.034-2.827-15.926-6.163-24.133-8.37-10.79-2.9-21.875-2.624-32.919-1.017a25.176,25.176,0,0,1-3.61,0c-9.915-41.7-54.428-67.008-97.954-48.987-5.085-8.065-9.722-16.343-15.254-23.939-3.905-5.359-9.061-9.8-13.658-14.644,8.2-13.454,18.305-25.211,31.333-34.17,23.085-15.844,48.55-22.282,76.272-17.817,37.363,6.031,64.384,26.522,80.259,60.733,13.149,28.353,12.631,57.3.539,86.066C524.067,334.873,523.8,335.606,523.518,336.328Z" transform="translate(-110.25 -113.052)" fill="#fccf21"/>
    <path id="Path_39" data-name="Path 39" d="M386.826,490.087q11.441-23.909,22.9-47.8l1.566.234c9.427,15.1,16.271,31.526,23.726,47.645,2.654,9.092,5.929,18.051,7.81,27.3,3.468,17.044-9.814,34.963-26.817,37.16-18.793,2.42-35.289-10.332-37.18-28.475-1.017-10.17,2.512-19.322,5.451-28.6C385.108,495.081,385.972,492.589,386.826,490.087Z" transform="translate(-109.526 -108.704)" fill="#60a2d6"/>
    <path id="Path_40" data-name="Path 40" d="M242.162,489.921c5.492-10.536,10.993-21.072,17.288-33.021l17.126,34.028c4.515,12.061,9.58,23.96,13.4,36.245,5.166,16.587-.966,31.658-15.1,39.662-20.471,11.685-46.719-2.9-47.8-26.441-.468-10.261,3.051-19.587,6.417-28.912C236.152,504.219,239.2,497.111,242.162,489.921Z" transform="translate(-112.098 -108.457)" fill="#60a2d6"/>
    <path id="Path_41" data-name="Path 41" d="M521.218,203.126c-1.922-1.647-4.983-3.051-5.909-5.38s-.742-6.356.763-8.136a228.531,228.531,0,0,1,17.705-17.949,7.4,7.4,0,0,1,10.536.763c2.9,3.142,3.631,6.956.722,10.17-5.787,6.305-11.98,12.2-18.173,18.153C525.723,201.834,523.791,202.078,521.218,203.126Z" transform="translate(-107.217 -113.327)" fill="#fcd022"/>
    <path id="Path_42" data-name="Path 42" d="M418.674,146.066c0,2.8.2,5.614,0,8.39-.437,4.892-3.7,7.953-8.136,7.963a7.576,7.576,0,0,1-7.963-7.485,115.693,115.693,0,0,1,0-17.207,7.759,7.759,0,0,1,8.39-7.566c4.281.244,7.383,3.549,7.7,8.451.163,2.471,0,4.973,0,7.454Z" transform="translate(-109.126 -114)" fill="#fcd127"/>
    <path id="Path_43" data-name="Path 43" d="M332.565,362.52c7.587,16.271,15.488,32.543,22.607,49.008a149.493,149.493,0,0,1,7.587,24.407c4.841,20.248-12.265,38.929-31.129,39.143-19.129.2-37.628-17.644-31.851-40,3.417-13.292,8.593-26.2,13.841-38.929,4.139-10.037,9.58-19.546,14.492-29.268.742-1.485,1.749-2.827,2.634-4.231Z" transform="translate(-110.882 -110.058)" fill="#60a2d6"/>
  </g>
</svg>
