<svg class="c-weather-icon-svg" xmlns="http://www.w3.org/2000/svg" viewBox="0 0 479.06 479.06">
  <g id="_10n" data-name="10n" transform="translate(0 -0.923)">
    <rect id="Rectangle_9" data-name="Rectangle 9" width="479.06" height="479.06" transform="translate(0 0.923)" fill="none"/>
    <path id="Path_44" data-name="Path 44" d="M399.777,487.859H284.1L266.958,454.6l-17.124,33.3c-18.865,0-37.739,0-56.6-.145-34.8-.29-67.026-27.515-73.428-61.825a45.056,45.056,0,0,0-1.8-5.636V400.6c1.554-5.48,2.745-11.105,4.724-16.42,10.691-28.747,31.431-45.582,61.463-51.072,3.336-.611,6.734-.891,10.8-1.419-.808-3.5-1.585-6.879-2.372-10.266-6.64-28.633.186-54.283,17.694-77.292a91.411,91.411,0,0,1,55.734-35.056c29.618-6.1,56.417.487,80.244,19.165a92.727,92.727,0,0,1,27.763,36.413c1.274,2.911,2.507,2.9,5.283,2.072,6.837-1.979,13.84-3.356,20.771-4.973h3.74c30.622-.487,55.8,15.539,68.072,43.51,1.782,4.071,2.994,8.391,4.465,12.566,20.957-3.688,40.806-1.5,59.235,8.629,7.034,3.864,13.27,9.189,19.859,13.84,5.594,7.821,12.183,15.114,16.575,23.547,16.057,30.633,10.515,70.952-13.643,96.291-17.134,17.963-37.739,27.4-62.54,27.535-15.757.083-31.5,0-47.249,0a9.654,9.654,0,0,1-1.036-1.471c-6.464-13.467-12.887-26.935-19.393-40.4-1.119-2.3-2.611-4.413-4.662-7.811ZM341.5,356.429a27.823,27.823,0,0,0-1.834,2.631c-5.345,10.359-10.971,20.719-15.922,31.254-6.392,13.674-12.162,27.587-14.99,42.6-4.32,22.9,18.388,43.841,40.878,37.387,18.8-5.408,28.53-23.516,23.454-42.474-6-22.314-16.306-42.733-26.686-63.141C345.027,361.992,343.3,359.433,341.5,356.429Z" transform="translate(-118 -115.702)" fill="#a2d3f6"/>
    <path id="Path_45" data-name="Path 45" d="M545.72,342.67c-6.589-4.651-12.825-9.976-19.859-13.84-18.429-10.132-38.278-12.317-59.235-8.629-1.471-4.144-2.683-8.495-4.465-12.566-12.276-27.97-37.449-44.038-68.072-43.51h-3.74c-2.631-22.273.8-43.592,11.095-63.514,15.964-30.892,40.878-50.3,75.448-56.1a106.319,106.319,0,0,1,46.493,2.207c-4.641,2.766-8.816,5.035-12.773,7.645-19.455,12.8-31.078,31.078-34.849,53.734-7.376,43.976,20.429,82.4,62.9,89.661,15.777,2.7,31.078.363,45.115-7.821a14.507,14.507,0,0,1,2.072-1.036c.228-.083.549.1,1.44.321C579.772,312.069,565.507,329.472,545.72,342.67Z" transform="translate(-108.241 -118)" fill="#fbe566"/>
    <path id="Path_46" data-name="Path 46" d="M245.808,479.264,262.933,446l17.145,33.3c4.724,12.67,10.069,25.142,14.027,38.05,5.418,17.715-1.191,33.15-16.575,41.3-20.108,10.743-46.244-4.206-47.467-27.007-.528-9.79,2.5-18.792,5.687-27.711C238.764,495.56,242.431,487.438,245.808,479.264Z" transform="translate(-113.974 -107.107)" fill="#60a2d6"/>
    <path id="Path_47" data-name="Path 47" d="M390.3,479.839,414.056,430c2.072,3.4,3.543,5.511,4.662,7.811,6.506,13.467,12.929,26.935,19.393,40.4a9.656,9.656,0,0,0,1.036,1.471c2.258,7.252,4.641,14.5,6.744,21.817,3.564,12.369,1.7,23.692-6.816,33.71-7.707,9.085-21.755,13.239-33.647,9.5-13.074-4.144-21.019-12.96-23.34-26.531-1.989-11.592,2.642-22.034,6.164-32.632C388.913,483.631,389.618,481.8,390.3,479.839Z" transform="translate(-108.525 -107.682)" fill="#60a2d6"/>
    <path id="Path_48" data-name="Path 48" d="M334.9,351.24c1.792,3,3.522,5.563,4.9,8.288,10.359,20.408,20.719,40.827,26.686,63.141,5.076,18.916-4.651,37.025-23.454,42.474-22.49,6.454-45.2-14.5-40.878-37.387,2.828-15.011,8.6-28.924,14.99-42.6,4.952-10.587,10.577-20.854,15.922-31.254A27.817,27.817,0,0,1,334.9,351.24Z" transform="translate(-111.4 -110.512)" fill="#60a2d6"/>
  </g>
</svg>
