<svg class="c-weather-icon-svg" xmlns="http://www.w3.org/2000/svg" viewBox="0 0 479.062 484.922">
  <g id="_11d" data-name="11d" transform="translate(-8.966 -0.52)">
    <rect id="Rectangle_12" data-name="Rectangle 12" width="479.06" height="479.06" transform="translate(8.966 3.52)" fill="none"/>
    <path id="Path_49" data-name="Path 49" d="M588.529,360.508c.488,1.619,1.038,3.216,1.453,4.856,1.608,6.225,3.237,12.45,4.742,18.676,1.038,4.2,2.013,8.435,2.635,12.7a55.3,55.3,0,0,1,.4,13.861,101.328,101.328,0,0,1-4.97,22.649,90.359,90.359,0,0,1-13.436,24.973,91.66,91.66,0,0,1-11.413,12.45,87.775,87.775,0,0,1-22.826,15.19,92.641,92.641,0,0,1-24.351,7.263,111.805,111.805,0,0,1-17.265,1.224H345.394l8.394-10.614c1.39-1.764,2.8-3.528,4.461-5.613H297.626l24.258-48.5H262.806a1.93,1.93,0,0,0-2.075,1.421c-1.857,4.472-3.787,8.912-5.7,13.363q-6.651,15.563-13.312,31.053-4.088,9.525-8.217,19.039c-.54,0-1.038-.073-1.619-.073-10.448,0-20.9.1-31.344,0A82.608,82.608,0,0,1,179.7,491.31a84.559,84.559,0,0,1-17.441-7,71.769,71.769,0,0,1-13.488-9.13c-2.677-2.345-5.323-4.741-7.771-7.263a75.74,75.74,0,0,1-10.987-14.889,82.63,82.63,0,0,1-7.263-16.538,64.088,64.088,0,0,1-3.113-14.733,144.591,144.591,0,0,1-.436-14.982,61.857,61.857,0,0,1,2.905-17.119c1.7-5.125,3.839-10.1,5.686-15.169a50.283,50.283,0,0,0,1.473-5.343,26.444,26.444,0,0,0,3.486-3.31,99.033,99.033,0,0,1,14.38-16.227,80.378,80.378,0,0,1,16.258-11.112,90.266,90.266,0,0,1,30.514-9c1.536-.2,3.04-.529,4.534-.789-1.038-4-2.137-7.823-3.113-11.672a98.8,98.8,0,0,1-2.573-20.751,49.376,49.376,0,0,1,.218-6.225c.467-4.6.788-9.224,1.639-13.747a102.446,102.446,0,0,1,32.869-56.452,98.191,98.191,0,0,1,19-12.6A109.553,109.553,0,0,1,266.7,199.41a85.151,85.151,0,0,1,20.979-3.3c4.586-.114,9.182.176,13.768.446a76.393,76.393,0,0,1,17.794,3.528,106.223,106.223,0,0,1,30.6,14.837A94.271,94.271,0,0,1,370.2,234.634a107.5,107.5,0,0,1,14.525,25.8c.353.892.747,1.038,1.577.685,1.639-.674,3.31-1.287,4.97-1.93a69.276,69.276,0,0,1,24.9-4.513,57.06,57.06,0,0,1,9.493.757,85.73,85.73,0,0,1,26.768,8.694,68.156,68.156,0,0,1,19.775,15.781A74.7,74.7,0,0,1,485.087,301.6c1.276,3.268,2.314,6.63,3.434,9.971A2.946,2.946,0,0,0,490.6,313.8a13.249,13.249,0,0,0,3.445.259c4.327-.259,8.643-.7,12.969-.913A73.851,73.851,0,0,1,526,314.7a89.82,89.82,0,0,1,25.419,9.286,85.816,85.816,0,0,1,16.206,11.62,106.5,106.5,0,0,1,14.8,16.87C584.3,355.206,586.454,357.852,588.529,360.508Z" transform="translate(-109.993 -113.014)" fill="#a1d2f5"/>
    <path id="Path_50" data-name="Path 50" d="M588.536,363.494c-2.075-2.677-4.233-5.3-6.225-8.051a106.5,106.5,0,0,0-14.8-16.87,85.813,85.813,0,0,0-16.206-11.62,89.818,89.818,0,0,0-25.419-9.286A73.849,73.849,0,0,0,506.9,316.11c-4.327.218-8.643.654-12.969.913a13.249,13.249,0,0,1-3.445-.259,2.947,2.947,0,0,1-2.075-2.231c-1.121-3.341-2.158-6.7-3.434-9.971A74.7,74.7,0,0,0,472.1,282.878,68.155,68.155,0,0,0,452.329,267.1a85.729,85.729,0,0,0-26.768-8.695,57.064,57.064,0,0,0-9.493-.757,69.276,69.276,0,0,0-24.9,4.513c-1.66.643-3.33,1.255-4.97,1.93-.83.342-1.224.208-1.577-.685a107.5,107.5,0,0,0-14.525-25.8,94.27,94.27,0,0,0-20.367-19.713,106.222,106.222,0,0,0-30.483-14.816,76.394,76.394,0,0,0-17.7-3.465c-4.586-.27-9.182-.56-13.768-.446a85.15,85.15,0,0,0-20.979,3.3,109.554,109.554,0,0,0-20.221,7.854,98.191,98.191,0,0,0-19,12.6,102.446,102.446,0,0,0-32.869,56.452c-.851,4.524-1.172,9.151-1.639,13.747a49.376,49.376,0,0,0-.218,6.225,98.8,98.8,0,0,0,2.573,20.751c.934,3.849,2.013,7.667,3.113,11.672-1.494.259-3,.591-4.534.789a90.266,90.266,0,0,0-30.514,9,80.38,80.38,0,0,0-16.258,11.112,99.032,99.032,0,0,0-14.38,16.227,26.45,26.45,0,0,1-3.486,3.31c-1.753-4.026-3.808-7.948-5.188-12.087a161.043,161.043,0,0,1-4.15-15.7,44.614,44.614,0,0,1-.809-7.647,95.762,95.762,0,0,1-.207-9.908,73.312,73.312,0,0,1,3.113-17.752c5.976-19.806,17.918-35.193,35.027-46.606a76.311,76.311,0,0,1,29.57-11.631c3.5-.612,7.055-.882,10.583-1.255.944-.1,1.307-.322,1.038-1.38-1.38-5.24-2.8-10.479-3.963-15.77A49.158,49.158,0,0,1,193.34,224a157.259,157.259,0,0,1-.228-16.248,88.833,88.833,0,0,1,5.53-25.347,107.4,107.4,0,0,1,16.85-29.653A93.181,93.181,0,0,1,241.5,130.309a102.3,102.3,0,0,1,33.709-12.2c3.113-.56,6.225-.809,9.338-1.121a54.992,54.992,0,0,1,7.377-.467c4.264.166,8.528.529,12.782.965,10.676,1.038,20.668,4.513,30.306,9.1a96.085,96.085,0,0,1,28.771,20.751,91.439,91.439,0,0,1,14.671,20.242c2.324,4.389,4.285,8.964,6.412,13.488.1.218.228.415.384.7l4.441-1.67a79.392,79.392,0,0,1,16.32-4.254c2.231-.342,4.492-.4,6.744-.56,1.639-.114,3.289-.28,4.939-.249a71.839,71.839,0,0,1,27.546,6,78.52,78.52,0,0,1,20.668,12.959,70.137,70.137,0,0,1,17.016,22.639,84.131,84.131,0,0,1,5.81,16.362c.239.975.55,1.38,1.65,1.245,3.3-.394,6.619-.809,9.95-.975s6.983-.062,10.479,0c1.484,0,2.957.166,4.441.239a73.664,73.664,0,0,1,17.161,3.113,90.711,90.711,0,0,1,64.462,73.073c.456,2.832.6,5.717.84,8.58.125,1.608.239,3.216.239,4.814a73.666,73.666,0,0,1-4.368,24.807c-1.7,4.793-3.04,9.722-4.555,14.588A10.676,10.676,0,0,1,588.536,363.494Z" transform="translate(-110 -116)" fill="#60a1d5"/>
    <path id="Path_51" data-name="Path 51" d="M229.63,485.917q4.15-9.525,8.217-19.039,6.682-15.563,13.312-31.053c1.909-4.451,3.839-8.892,5.7-13.363a1.93,1.93,0,0,1,2.075-1.421q28.729.073,57.469,0h1.639l-24.258,48.5h60.685c-1.66,2.075-3.113,3.849-4.461,5.613l-8.394,10.614-10.645,13.291q-8.394,10.458-16.767,20.927c-4.15,5.188-8.238,10.375-12.378,15.563-3.777,4.71-7.605,9.338-11.413,14.09-2.48,3.113-4.908,6.225-7.387,9.338s-5.074,6.225-7.584,9.338c-3.113,3.88-6.153,7.792-9.244,11.683-2.687,3.372-5.385,6.723-8.3,10.012,7.595-28.013,15.926-55.85,23.863-84.04H221.579l-.249-.415,7.066-16.6C228.811,487.9,229.215,486.9,229.63,485.917Z" transform="translate(-106.158 -104.571)" fill="#fea754"/>
    <path id="Path_52" data-name="Path 52" d="M221.336,502.45l.249.415-.4-.062Z" transform="translate(-106.164 -101.515)" fill="#fec086"/>
  </g>
</svg>
