<svg class="c-weather-icon-svg" xmlns="http://www.w3.org/2000/svg" viewBox="0 0 479.511 484.365">
  <g id="_11n" data-name="11n" transform="translate(-7.966 -0.52)">
    <rect id="Rectangle_17" data-name="Rectangle 17" width="479.06" height="479.06" transform="translate(7.966 3.52)" fill="none"/>
    <path id="Path_53" data-name="Path 53" d="M587.989,360.319c.487,1.617,1.036,3.213,1.451,4.85,1.606,6.218,3.233,12.436,4.736,18.654,1.036,4.2,2.011,8.425,2.632,12.685a55.235,55.235,0,0,1,.4,13.845,101.21,101.21,0,0,1-4.964,22.623,90.256,90.256,0,0,1-13.421,24.945,91.555,91.555,0,0,1-11.4,12.436,87.674,87.674,0,0,1-22.8,15.172,92.534,92.534,0,0,1-24.323,7.254,111.678,111.678,0,0,1-17.245,1.223H345.134l8.384-10.6c1.389-1.762,2.8-3.524,4.456-5.607H297.421l24.23-48.449H262.641a1.928,1.928,0,0,0-2.073,1.42c-1.855,4.467-3.783,8.9-5.69,13.348q-6.643,15.545-13.3,31.018-4.083,9.514-8.208,19.017c-.539,0-1.036-.073-1.617-.073-10.436,0-20.872.1-31.308,0a82.512,82.512,0,0,1-20.82-3.109,84.46,84.46,0,0,1-17.421-7,71.686,71.686,0,0,1-13.472-9.12c-2.674-2.342-5.316-4.736-7.762-7.254A75.652,75.652,0,0,1,130,452.729a82.535,82.535,0,0,1-7.254-16.519,64.014,64.014,0,0,1-3.109-14.716,144.424,144.424,0,0,1-.435-14.965,61.786,61.786,0,0,1,2.9-17.1c1.7-5.12,3.834-10.084,5.679-15.151a50.222,50.222,0,0,0,1.472-5.337,26.411,26.411,0,0,0,3.482-3.306A98.92,98.92,0,0,1,147.1,349.427a80.285,80.285,0,0,1,16.239-11.1,90.162,90.162,0,0,1,30.479-8.985c1.534-.2,3.036-.529,4.529-.788-1.036-4-2.135-7.814-3.109-11.659a98.693,98.693,0,0,1-2.57-20.727,49.322,49.322,0,0,1,.218-6.218c.466-4.591.788-9.213,1.637-13.732a102.328,102.328,0,0,1,32.831-56.387,98.079,98.079,0,0,1,18.975-12.581,109.426,109.426,0,0,1,20.2-7.845,85.053,85.053,0,0,1,20.955-3.3c4.581-.114,9.172.176,13.752.446a76.3,76.3,0,0,1,17.773,3.524,106.1,106.1,0,0,1,30.562,14.82,94.162,94.162,0,0,1,20.343,19.69,107.374,107.374,0,0,1,14.509,25.774c.352.891.746,1.036,1.575.684,1.637-.674,3.306-1.285,4.964-1.928a69.2,69.2,0,0,1,24.872-4.508,57,57,0,0,1,9.483.757,85.632,85.632,0,0,1,26.738,8.685,68.076,68.076,0,0,1,19.753,15.763,74.615,74.615,0,0,1,12.861,21.659c1.275,3.264,2.311,6.622,3.43,9.959a2.943,2.943,0,0,0,2.073,2.228,13.233,13.233,0,0,0,3.441.259c4.322-.259,8.633-.694,12.954-.912a73.765,73.765,0,0,1,18.965,1.555,89.716,89.716,0,0,1,25.39,9.275,85.715,85.715,0,0,1,16.188,11.607A106.378,106.378,0,0,1,581.885,352.3C583.761,355.023,585.917,357.666,587.989,360.319Z" transform="translate(-109.993 -113.109)" fill="#a1d2f5"/>
    <path id="Path_54" data-name="Path 54" d="M588,363.21c-2.073-2.674-4.228-5.3-6.218-8.042A106.383,106.383,0,0,0,567,338.317a85.719,85.719,0,0,0-16.188-11.607,89.715,89.715,0,0,0-25.39-9.275,73.764,73.764,0,0,0-18.965-1.554c-4.322.218-8.633.653-12.954.912a13.234,13.234,0,0,1-3.441-.259,2.943,2.943,0,0,1-2.073-2.228c-1.119-3.337-2.156-6.695-3.43-9.959A74.617,74.617,0,0,0,471.7,282.687a68.077,68.077,0,0,0-19.753-15.763,85.63,85.63,0,0,0-26.738-8.685,57,57,0,0,0-9.483-.757,69.2,69.2,0,0,0-24.872,4.508c-1.658.643-3.327,1.254-4.964,1.928-.829.342-1.223.207-1.575-.684a107.373,107.373,0,0,0-14.509-25.774,94.161,94.161,0,0,0-20.343-19.69,106.1,106.1,0,0,0-30.448-14.8,76.306,76.306,0,0,0-17.68-3.461c-4.581-.269-9.172-.56-13.752-.446a85.052,85.052,0,0,0-20.955,3.3,109.428,109.428,0,0,0-20.2,7.845,98.078,98.078,0,0,0-18.975,12.581,102.328,102.328,0,0,0-32.831,56.387c-.85,4.518-1.171,9.141-1.637,13.732a49.315,49.315,0,0,0-.218,6.218,98.69,98.69,0,0,0,2.57,20.727c.933,3.845,2.01,7.659,3.109,11.659-1.492.259-3,.591-4.529.788a90.162,90.162,0,0,0-30.479,8.985,80.287,80.287,0,0,0-16.239,11.1,98.919,98.919,0,0,0-14.364,16.208,26.419,26.419,0,0,1-3.482,3.306c-1.751-4.021-3.8-7.938-5.182-12.073a160.863,160.863,0,0,1-4.145-15.68,44.561,44.561,0,0,1-.808-7.638,95.653,95.653,0,0,1-.207-9.9,73.228,73.228,0,0,1,3.109-17.732c5.969-19.784,17.9-35.153,34.987-46.552a76.223,76.223,0,0,1,29.536-11.617c3.492-.611,7.047-.881,10.571-1.254.943-.1,1.306-.321,1.036-1.378-1.378-5.234-2.8-10.467-3.959-15.752a49.1,49.1,0,0,1-1.036-8.446,157.081,157.081,0,0,1-.228-16.229,88.73,88.73,0,0,1,5.524-25.318,107.272,107.272,0,0,1,16.83-29.619,93.074,93.074,0,0,1,25.981-22.416,102.183,102.183,0,0,1,33.671-12.187c3.109-.56,6.218-.808,9.327-1.119a54.928,54.928,0,0,1,7.368-.466c4.259.166,8.519.529,12.768.964,10.664,1.036,20.644,4.508,30.271,9.089A95.975,95.975,0,0,1,363.5,147.3a91.334,91.334,0,0,1,14.654,20.219c2.321,4.384,4.28,8.954,6.4,13.472.1.218.228.415.383.694l4.436-1.669a79.3,79.3,0,0,1,16.3-4.249c2.228-.342,4.487-.4,6.736-.56,1.637-.114,3.285-.28,4.933-.249a71.756,71.756,0,0,1,27.515,5.99,78.43,78.43,0,0,1,20.644,12.944,70.057,70.057,0,0,1,17,22.613,84.036,84.036,0,0,1,5.8,16.343c.238.974.549,1.378,1.648,1.244,3.3-.394,6.612-.808,9.938-.974s6.975-.062,10.467,0c1.482,0,2.954.166,4.436.238a73.58,73.58,0,0,1,17.141,3.109,90.607,90.607,0,0,1,64.388,72.989c.456,2.829.6,5.71.839,8.57.124,1.606.238,3.213.238,4.809a73.583,73.583,0,0,1-4.363,24.779c-1.7,4.788-3.037,9.71-4.55,14.571A10.655,10.655,0,0,1,588,363.21Z" transform="translate(-110 -116)" fill="#60a1d5"/>
    <path id="Path_55" data-name="Path 55" d="M229.621,485.843q4.145-9.514,8.208-19.017,6.674-15.545,13.3-31.018c1.907-4.446,3.834-8.881,5.69-13.348a1.928,1.928,0,0,1,2.073-1.42q28.7.073,57.4,0h1.637L293.7,469.489h60.615c-1.658,2.073-3.109,3.845-4.456,5.607l-8.384,10.6L330.84,498.973q-8.384,10.446-16.747,20.9c-4.145,5.182-8.229,10.363-12.364,15.545-3.772,4.7-7.6,9.327-11.4,14.074-2.477,3.109-4.9,6.218-7.379,9.327s-5.068,6.218-7.576,9.327c-3.109,3.876-6.146,7.783-9.234,11.669-2.684,3.368-5.379,6.715-8.291,10,7.586-27.981,15.908-55.786,23.836-83.943H221.579l-.249-.415,7.057-16.581C228.8,487.822,229.206,486.827,229.621,485.843Z" transform="translate(-106.28 -104.934)" fill="#fea754"/>
    <path id="Path_56" data-name="Path 56" d="M221.335,502.45l.249.415-.4-.062Z" transform="translate(-106.286 -101.976)" fill="#fec086"/>
  </g>
</svg>
