<svg class="c-weather-icon-svg" xmlns="http://www.w3.org/2000/svg" viewBox="0 0 479.06 479.06">
  <g id="_13d" data-name="13d" transform="translate(-0.759 0.04)">
    <rect id="Rectangle_8" data-name="Rectangle 8" width="479.06" height="479.06" transform="translate(0.759 -0.04)" fill="none"/>
    <path id="Path_57" data-name="Path 57" d="M629.771,392.369c-2.772,5.339-7.2,6.947-13.078,6.707-9.766-.384-19.569-.1-30.475-.1,1.44,1.8,2.148,2.868,3.036,3.767,5.711,5.759,11.482,11.458,17.181,17.217,4.655,4.691,5.171,10.486,1.368,14.506-3.959,4.2-9.934,3.923-14.9-.972q-15.6-15.441-31.075-31.123a10.426,10.426,0,0,0-8.159-3.479q-46.1.192-92.169,0c-3.707,0-4.8,1.332-6,4.679A179.428,179.428,0,0,1,446,426.24c-1.536,3.047-1.392,4.559.948,6.659a69.589,69.589,0,0,1,8.879,8.963c3.084,4.019,6.707,4.559,11.338,3.839,18.393-2.856,36.81-5.507,55.191-8.219,4.943-.732,9.9,2.4,10.87,6.8,1.272,5.8-.792,10.39-6.395,11.686-7.535,1.74-15.274,2.6-22.928,3.755-8.4,1.272-16.8,2.4-26.06,3.755,6.863,6.959,12.13,13.714,22,15.789,20.5,4.331,40.709,10.114,61.106,14.95,6.659,1.584,10.366,4.8,12,11.734,5.627,23.888,11.818,47.644,17.757,71.46,2.28,9.119-3.671,14.974-12.874,12.694-24.428-6-48.844-12.178-73.3-18.165-5.819-1.428-8.291-5.387-9.6-10.8-5.315-21.729-10.906-43.4-16.017-65.174-1.284-5.471-4.8-8.831-8.4-12.5-1.836-1.884-3.4-4.019-5.087-6l-1.476.624c-.924,6.167-1.872,12.334-2.76,18.5-1.32,9.214-2.4,18.465-3.947,27.6-1.08,6.635-5.807,9.742-12.118,8.495-5.111-1.02-7.727-6.215-6.791-12.442,2.4-16.1,4-32.395,7.2-48.316,1.92-9.5-.852-15.6-7.883-21.513-7.2-6.119-6.707-6.287-15.418-2.2a152.988,152.988,0,0,1-18.765,6.851c-2.736.864-4.067,1.8-4.055,5,.132,31.339,0,62.69.2,94.029a10.306,10.306,0,0,0,2.868,6.383c9.982,10.294,20.217,20.4,30.343,30.511a24.242,24.242,0,0,1,3.072,3.5c3.1,4.7,2.508,9.814-1.38,13.042a9.814,9.814,0,0,1-13.2-.936c-5.927-5.759-11.71-11.674-17.565-17.505-1.044-1.032-2.2-1.98-4.319-3.887v9.922c0,8.267.072,16.533-.06,24.8a9.346,9.346,0,0,1-18.681.072c-.144-9.67-.06-19.341-.084-29.011,0-1.488-.156-2.976-.3-5.663-3.263,3.168-5.783,5.567-8.255,8.015-4.211,4.175-8.4,8.4-12.586,12.562-4.559,4.463-10.078,4.9-14.146,1.2s-4.127-9.862.48-14.578q15.406-15.694,31.123-31.063a11.35,11.35,0,0,0,3.767-8.975q-.216-45.593,0-91.185c0-4.151-1.452-5.219-5.183-6.467a189.138,189.138,0,0,1-22.628-9.6c-2.4-1.2-3.719-1.452-5.567.54a72.408,72.408,0,0,1-9.3,9.2c-4.8,3.6-4.691,7.859-3.863,13.054,2.616,16.545,4.883,33.139,7.139,49.744.408,2.987.78,6.263,0,9.083-1.3,4.607-5.063,6.251-9.826,6-4.967-.24-7.4-3.312-8.219-7.523-1.428-7.307-2.328-14.7-3.407-22.064-1.2-8.4-2.4-16.8-3.755-25.94-7.547,7.067-14.074,13.042-16.161,23.4-4.163,20.541-9.862,40.793-14.89,61.118-1.4,5.675-4.643,8.915-10.594,10.33-24,5.735-47.992,11.878-71.988,17.841-9.514,2.4-15.382-3.4-13.03-12.826,5.939-23.8,12.118-47.572,17.745-71.461,1.6-6.767,5.255-9.922,11.7-11.47q32.395-7.775,64.658-16.173c3.527-.924,6.827-3.335,9.814-5.615s5.579-5.339,9.131-8.831c-6.923-1.092-12.79-2.076-18.681-2.916-9.37-1.344-18.765-2.5-28.123-3.911-6.839-1.044-10.1-5.759-8.867-12.3.972-5.063,6.167-7.607,12.478-6.671,16.425,2.4,33.019,3.923,49.252,7.2,9.023,1.848,14.674-.828,19.821-7.4,2.112-2.688,6.143-4.715,6.647-7.523s-2.8-5.8-4.007-8.879c-2.4-6.059-4.631-12.166-6.575-18.381-.864-2.76-1.872-4.019-5.039-4.007-31.351.132-62.7,0-94.053.192a9.67,9.67,0,0,0-6,2.58c-10.4,10.1-20.577,20.4-30.847,30.679a22.894,22.894,0,0,1-3.527,3.036c-4.8,3.083-9.838,2.484-13.03-1.416a9.826,9.826,0,0,1,1.008-13.2c5.771-5.915,11.686-11.7,17.505-17.565,1.032-1.032,1.968-2.184,3.827-4.271h-12.5c-7.331,0-14.662.072-21.992-.072a9.346,9.346,0,0,1,0-18.681c9.67-.132,19.341,0,29.011-.084,1.476,0,2.964-.156,5.435-.3-1.608-1.8-2.544-2.94-3.6-3.983-5.831-5.855-11.746-11.626-17.505-17.565-3.827-3.947-4.019-9.143-.756-13.078s8.4-4.451,13.066-1.308a24.234,24.234,0,0,1,3.467,3.107c10.162,10.126,20.229,20.4,30.535,30.331a10.247,10.247,0,0,0,6.455,2.7c31.195.168,62.39,0,93.585.2,3.467,0,4.223-1.548,5.267-4.319,2.988-7.955,6.227-15.849,9.862-23.516,1.2-2.4,1.332-3.719-.6-5.555-4.187-3.971-8.111-8.231-12.346-12.142a6,6,0,0,0-4.343-1.428c-19.677,2.676-39.33,5.5-58.983,8.339a10.09,10.09,0,0,1-11.422-7.331,8.819,8.819,0,0,1,6.971-11.254c7.4-1.644,14.974-2.508,22.484-3.6,8.4-1.26,16.8-2.4,26.3-3.779-7.067-6.575-11.926-13.546-21.7-15.6-20.817-4.379-41.321-10.21-62.006-15.19-6.479-1.56-9.994-4.9-11.578-11.614-5.627-23.888-11.818-47.644-17.757-71.46-2.2-8.819,3.815-15.022,12.5-12.862,24.584,6.083,49.192,12.262,73.74,18.309,5.831,1.428,8.231,5.459,9.538,10.8,5.327,21.729,10.618,43.469,16.281,65.1.924,3.539,3.347,6.827,5.627,9.814s5.339,5.579,8.891,9.191c1.08-7.295,2.016-13.486,2.9-19.677,1.32-9.215,2.4-18.465,3.971-27.6,1.128-6.755,5.579-9.6,12.142-8.4,5.087.948,7.691,6.155,6.743,12.442-2.4,16.1-4,32.395-7.2,48.3-1.92,9.514.852,15.6,7.883,21.525,7.2,6.119,6.695,6.287,15.418,2.2a152.281,152.281,0,0,1,18.8-6.887c2.736-.864,4.067-1.8,4.055-5-.132-31.339,0-62.678-.2-94.029a10.294,10.294,0,0,0-2.856-6.371c-10.21-10.522-20.661-20.817-31.027-31.195-2.856-2.868-5.039-6.083-4.091-10.378,1.668-7.5,10.366-10.09,16.077-4.679,6,5.687,11.722,11.662,17.589,17.481,1.068,1.068,2.22,2.064,4.439,4.1v-6.551c0-8.111.3-16.233-.108-24.32-.288-5.9,1.368-10.306,6.707-13.078h5.615c5.327,2.772,6.995,7.2,6.707,13.066-.408,7.931-.108,15.9-.108,23.852V193.9c2.22-2.028,3.371-3.012,4.439-4.079,5.855-5.831,11.578-11.794,17.577-17.481,5.711-5.423,14.4-2.844,16.077,4.655.972,4.283-1.2,7.511-4.067,10.378-10.366,10.366-20.8,20.661-31.015,31.195a10.294,10.294,0,0,0-2.88,6.371c-.18,31.339-.084,62.678-.2,94.017,0,3.168,1.26,4.151,4.019,5.039a155.977,155.977,0,0,1,19.2,7.055c8.3,3.923,7.751,3.791,15.01-2.4,6.995-5.927,9.838-12,7.919-21.489-3.2-15.945-4.8-32.2-7.2-48.3-.948-6.311,1.608-11.518,6.659-12.49,6.719-1.284,11.206,1.776,12.286,8.795,1.44,9.346,2.58,18.741,3.923,28.111.852,5.9,1.836,11.794,2.748,17.685l1.548.924c1.512-1.968,2.88-4.055,4.547-5.867,3.6-3.839,7.439-7.1,8.771-12.79,5.087-21.776,10.726-43.433,16.029-65.161,1.368-5.567,3.9-9.538,9.934-11,24.308-5.9,48.556-12,72.828-18,9.418-2.34,15.274,3.6,12.922,13.03-6,24-12.106,47.884-17.841,71.9-1.428,6-4.679,9.179-10.342,10.582-20.4,5.027-40.589,10.726-61.118,14.89-10.342,2.088-16.341,8.6-23.4,16.161,9.167,1.32,17.565,2.484,25.94,3.743,7.655,1.2,15.393,2.04,22.928,3.731a8.735,8.735,0,0,1,6.683,11.014,10.042,10.042,0,0,1-11.314,7.487c-19.641-2.808-39.294-5.639-58.959-8.327a6.143,6.143,0,0,0-4.391,1.3c-4.355,4.019-8.4,8.4-12.67,12.466-1.812,1.752-1.512,2.988-.456,5.2a245.947,245.947,0,0,1,9.8,23.048c1.2,3.4,2.16,4.979,6.179,4.955q46.073-.306,92.157,0a9.91,9.91,0,0,0,7.763-3.287q15.6-15.837,31.411-31.435c4.8-4.667,10.666-4.8,14.59-.8s3.455,9.766-1.2,14.47c-5.711,5.771-11.482,11.47-17.181,17.229-.888.888-1.6,1.968-3.024,3.755,10.906,0,20.7.288,30.463-.1,5.9-.24,10.306,1.368,13.078,6.707ZM390.17,437.29c26.108.48,47.068-21.6,47.86-46.157.876-27.284-22.16-48.9-46.672-49.408-27.056-.552-48.616,22-49.012,47.008-.384,26.624,22.112,49.12,47.872,48.532ZM499.64,279.419c.984.336,1.308.576,1.56.516,16.977-4.247,33.979-8.4,50.908-12.922a6.287,6.287,0,0,0,3.515-3.983c4.139-15.885,8.063-31.831,12-47.776a13.75,13.75,0,0,0,0-3.155,7.02,7.02,0,0,0-2.1-.18c-16.461,4.079-33.007,8.159-49.5,12.478a5.471,5.471,0,0,0-3.431,3.107c-4.415,17.181-8.615,34.458-12.9,51.892Zm-.2,219.361c4.475,18.309,8.591,35.454,12.994,52.528a6.443,6.443,0,0,0,4.079,3.6c16.041,4.187,32.143,8.147,48.232,12.106a10.8,10.8,0,0,0,2.964-.12,6.241,6.241,0,0,0,.2-1.776c-4.151-16.677-8.267-33.379-12.6-50.02a5.376,5.376,0,0,0-3.3-3.048c-8.4-2.316-16.8-4.367-25.2-6.479ZM281.071,280.487c-4.7-18.693-9-36.114-13.582-53.463-.324-1.272-2.508-2.532-4.043-2.928-15.6-4-31.255-7.823-46.9-11.662a33.14,33.14,0,0,0-4.007-.5,13.7,13.7,0,0,0,0,2.52c4.067,16.389,8.1,32.791,12.382,49.12a6.3,6.3,0,0,0,3.9,3.6c12,3.227,24,6.155,35.994,9.178ZM212.238,566.881a10.121,10.121,0,0,0,2.4.348c16.689-4.139,33.391-8.231,50.032-12.574a6,6,0,0,0,3.227-3.7c1.932-6.539,3.539-13.2,5.183-19.773,2.616-10.474,5.159-20.949,7.859-31.951a14.928,14.928,0,0,0-3.191,0c-16.221,4.127-32.395,8.4-48.652,12.37-3.023.744-3.827,2.4-4.451,5-2.628,10.8-5.423,21.6-8.111,32.467C215.022,554.907,213.678,560.726,212.238,566.881Z" transform="translate(-150 -150)" fill="#a3d4f6"/>
    <path id="Path_58" data-name="Path 58" d="M358.305,405.336c-25.76.588-48.256-21.908-47.824-48.556.4-25,21.956-47.56,49.012-47.008,24.512.5,47.548,22.124,46.672,49.408C405.374,383.7,384.413,405.816,358.305,405.336Z" transform="translate(-118.088 -118.071)" fill="#b6f8fd"/>
    <path id="Path_59" data-name="Path 59" d="M441.58,269.084c4.283-17.433,8.483-34.71,12.9-51.928a5.471,5.471,0,0,1,3.431-3.107c16.5-4.283,33.043-8.4,49.576-12.466a7.019,7.019,0,0,1,2.1.18,13.746,13.746,0,0,1,0,3.155c-3.923,15.945-7.847,31.891-12,47.776a6.287,6.287,0,0,1-3.515,3.983c-16.929,4.475-33.931,8.675-50.908,12.922C442.888,269.66,442.564,269.42,441.58,269.084Z" transform="translate(-91.892 -139.688)" fill="#b6f8fd"/>
    <path id="Path_60" data-name="Path 60" d="M441.41,440.67l27.368,6.8c8.4,2.112,16.8,4.163,25.2,6.479a5.375,5.375,0,0,1,3.3,3.047c4.331,16.641,8.4,33.343,12.6,50.02a6.239,6.239,0,0,1-.2,1.776,10.8,10.8,0,0,1-2.963.12c-16.089-3.959-32.191-7.919-48.232-12.106a6.443,6.443,0,0,1-4.079-3.6C450,476.124,445.885,458.979,441.41,440.67Z" transform="translate(-91.926 -91.914)" fill="#b6f8fd"/>
    <path id="Path_61" data-name="Path 61" d="M270.815,270.145l-16.209-4.127c-12-3.024-24.068-6-35.994-9.179a6.3,6.3,0,0,1-3.9-3.6c-4.283-16.329-8.315-32.731-12.382-49.12a13.7,13.7,0,0,1,0-2.52,33.137,33.137,0,0,1,4.007.5c15.6,3.839,31.291,7.667,46.9,11.662,1.536.4,3.719,1.656,4.043,2.928C261.816,234.031,266.111,251.452,270.815,270.145Z" transform="translate(-139.707 -139.682)" fill="#b6f8fd"/>
    <path id="Path_62" data-name="Path 62" d="M202,508.723c1.476-6.155,2.82-12,4.259-17.769,2.688-10.8,5.483-21.6,8.111-32.467.624-2.58,1.428-4.259,4.451-5,16.257-3.971,32.395-8.243,48.652-12.37a14.924,14.924,0,0,1,3.191,0c-2.7,11-5.243,21.477-7.859,31.951-1.644,6.611-3.251,13.2-5.183,19.773a6,6,0,0,1-3.227,3.7c-16.641,4.343-33.343,8.4-50.032,12.574A10.111,10.111,0,0,1,202,508.723Z" transform="translate(-139.762 -91.843)" fill="#b6f8fd"/>
  </g>
</svg>
