<svg class="c-weather-icon-svg" xmlns="http://www.w3.org/2000/svg" viewBox="0 0 479.094 479.06">
  <g id="_13n" data-name="13n" transform="translate(-0.759 0.04)">
    <rect id="Rectangle_18" data-name="Rectangle 18" width="479.06" height="479.06" transform="translate(0.759 -0.04)" fill="none"/>
    <path id="Path_63" data-name="Path 63" d="M629.805,392.386c-2.772,5.34-7.2,6.947-13.079,6.707-9.767-.384-19.57-.1-30.477-.1,1.44,1.8,2.148,2.868,3.036,3.768,5.711,5.759,11.483,11.459,17.182,17.218,4.656,4.692,5.172,10.487,1.368,14.507-3.96,4.2-9.935,3.924-14.9-.972q-15.6-15.443-31.077-31.125a10.427,10.427,0,0,0-8.159-3.48q-46.1.192-92.176,0c-3.708,0-4.8,1.332-6,4.68a179.443,179.443,0,0,1-9.5,22.666c-1.536,3.048-1.392,4.56.948,6.659a69.6,69.6,0,0,1,8.879,8.963c3.084,4.02,6.707,4.56,11.339,3.84,18.394-2.856,36.813-5.507,55.2-8.219,4.944-.732,9.9,2.4,10.871,6.8,1.272,5.8-.792,10.391-6.4,11.687-7.535,1.74-15.275,2.6-22.93,3.756-8.4,1.272-16.8,2.4-26.062,3.756,6.863,6.959,12.131,13.715,22.006,15.791,20.506,4.332,40.712,10.115,61.111,14.951,6.659,1.584,10.367,4.8,12,11.735,5.628,23.89,11.819,47.648,17.758,71.466,2.28,9.119-3.672,14.975-12.875,12.695-24.43-6-48.848-12.179-73.3-18.166-5.82-1.428-8.291-5.388-9.6-10.8-5.315-21.73-10.907-43.4-16.019-65.178-1.284-5.471-4.8-8.831-8.4-12.5-1.836-1.884-3.4-4.02-5.088-6l-1.476.624c-.924,6.167-1.872,12.335-2.76,18.5-1.32,9.215-2.4,18.466-3.948,27.6-1.08,6.635-5.807,9.743-12.119,8.5-5.112-1.02-7.727-6.215-6.791-12.443,2.4-16.1,4-32.4,7.2-48.32,1.92-9.5-.852-15.6-7.883-21.514-7.2-6.119-6.707-6.287-15.419-2.2a153,153,0,0,1-18.766,6.851c-2.736.864-4.068,1.8-4.056,5,.132,31.341,0,62.694.2,94.035a10.307,10.307,0,0,0,2.868,6.384c9.983,10.295,20.218,20.4,30.345,30.513a24.242,24.242,0,0,1,3.072,3.5c3.1,4.7,2.508,9.815-1.38,13.043a9.815,9.815,0,0,1-13.2-.936c-5.927-5.759-11.711-11.675-17.566-17.506-1.044-1.032-2.2-1.98-4.32-3.888v9.923c0,8.267.072,16.535-.06,24.8a9.347,9.347,0,0,1-18.682.072c-.144-9.671-.06-19.342-.084-29.013,0-1.488-.156-2.976-.3-5.663-3.264,3.168-5.783,5.568-8.255,8.015-4.212,4.176-8.4,8.4-12.587,12.563-4.56,4.464-10.079,4.9-14.147,1.2s-4.128-9.863.48-14.579q15.407-15.695,31.125-31.065a11.351,11.351,0,0,0,3.768-8.975q-.216-45.6,0-91.192c0-4.152-1.452-5.22-5.184-6.467a189.151,189.151,0,0,1-22.63-9.6c-2.4-1.2-3.72-1.452-5.568.54a72.41,72.41,0,0,1-9.3,9.2c-4.8,3.6-4.692,7.859-3.864,13.055,2.616,16.547,4.884,33.141,7.139,49.748.408,2.988.78,6.263,0,9.083-1.3,4.608-5.064,6.251-9.827,6-4.968-.24-7.4-3.312-8.219-7.523-1.428-7.307-2.328-14.7-3.408-22.066-1.2-8.4-2.4-16.8-3.756-25.942-7.547,7.067-14.075,13.043-16.163,23.4-4.164,20.542-9.863,40.8-14.891,61.122-1.4,5.675-4.644,8.915-10.6,10.331-24,5.735-48,11.879-71.993,17.842-9.515,2.4-15.383-3.4-13.031-12.827,5.939-23.806,12.119-47.576,17.746-71.466,1.6-6.767,5.256-9.923,11.7-11.471q32.4-7.775,64.662-16.175c3.528-.924,6.827-3.336,9.815-5.615s5.579-5.34,9.131-8.831c-6.923-1.092-12.791-2.076-18.682-2.916-9.371-1.344-18.766-2.5-28.125-3.912-6.839-1.044-10.1-5.759-8.867-12.3.972-5.064,6.167-7.607,12.479-6.671,16.427,2.4,33.021,3.924,49.256,7.2,9.023,1.848,14.675-.828,19.822-7.4,2.112-2.688,6.143-4.716,6.647-7.523s-2.8-5.8-4.008-8.879c-2.4-6.059-4.632-12.167-6.575-18.382-.864-2.76-1.872-4.02-5.04-4.008-31.353.132-62.706,0-94.059.192a9.671,9.671,0,0,0-6,2.58c-10.4,10.1-20.578,20.4-30.849,30.681a22.9,22.9,0,0,1-3.528,3.036c-4.8,3.084-9.839,2.484-13.031-1.416a9.827,9.827,0,0,1,1.008-13.2c5.771-5.915,11.687-11.7,17.506-17.566,1.032-1.032,1.968-2.184,3.828-4.272h-12.5c-7.331,0-14.663.072-21.994-.072a9.347,9.347,0,0,1,0-18.682c9.671-.132,19.342,0,29.013-.084,1.476,0,2.964-.156,5.436-.3-1.608-1.8-2.544-2.94-3.6-3.984-5.831-5.855-11.747-11.627-17.506-17.566-3.828-3.948-4.02-9.143-.756-13.079s8.4-4.452,13.067-1.308a24.239,24.239,0,0,1,3.468,3.108c10.163,10.127,20.23,20.4,30.537,30.333a10.247,10.247,0,0,0,6.455,2.7c31.2.168,62.394,0,93.592.2,3.468,0,4.224-1.548,5.268-4.32,2.988-7.955,6.227-15.851,9.863-23.518,1.2-2.4,1.332-3.72-.6-5.555-4.188-3.972-8.111-8.231-12.347-12.143a6,6,0,0,0-4.344-1.428c-19.678,2.676-39.332,5.5-58.987,8.339a10.091,10.091,0,0,1-11.423-7.331,8.819,8.819,0,0,1,6.971-11.255c7.4-1.644,14.975-2.508,22.486-3.6,8.4-1.26,16.8-2.4,26.3-3.78-7.067-6.575-11.927-13.547-21.706-15.6-20.818-4.38-41.324-10.211-62.01-15.191-6.479-1.56-10-4.9-11.579-11.615-5.627-23.89-11.819-47.648-17.758-71.466-2.2-8.819,3.816-15.023,12.5-12.863,24.586,6.083,49.2,12.263,73.745,18.31,5.831,1.428,8.231,5.46,9.539,10.8,5.328,21.73,10.619,43.472,16.283,65.106.924,3.54,3.348,6.827,5.628,9.815s5.34,5.579,8.891,9.191c1.08-7.3,2.016-13.487,2.9-19.678,1.32-9.215,2.4-18.466,3.972-27.6,1.128-6.755,5.579-9.6,12.143-8.4,5.088.948,7.691,6.155,6.743,12.443-2.4,16.1-4,32.4-7.2,48.308-1.92,9.515.852,15.6,7.883,21.526,7.2,6.119,6.7,6.287,15.419,2.2a152.291,152.291,0,0,1,18.8-6.887c2.736-.864,4.068-1.8,4.056-5-.132-31.341,0-62.682-.2-94.036a10.3,10.3,0,0,0-2.856-6.371c-10.211-10.523-20.662-20.818-31.029-31.2-2.856-2.868-5.04-6.083-4.092-10.379,1.668-7.5,10.367-10.091,16.079-4.68,6,5.687,11.723,11.663,17.59,17.482,1.068,1.068,2.22,2.064,4.44,4.1v-6.551c0-8.111.3-16.235-.108-24.322-.288-5.9,1.368-10.307,6.707-13.079h5.615c5.328,2.772,7,7.2,6.707,13.067-.408,7.931-.108,15.9-.108,23.854V193.9c2.22-2.028,3.372-3.012,4.44-4.08,5.855-5.831,11.579-11.795,17.578-17.482,5.711-5.424,14.4-2.844,16.079,4.656.972,4.284-1.2,7.511-4.068,10.379-10.367,10.367-20.806,20.662-31.017,31.2a10.3,10.3,0,0,0-2.88,6.371c-.18,31.341-.084,62.682-.2,94.023,0,3.168,1.26,4.152,4.02,5.04a155.982,155.982,0,0,1,19.2,7.055c8.3,3.924,7.751,3.792,15.011-2.4,7-5.927,9.839-12,7.919-21.49-3.2-15.947-4.8-32.205-7.2-48.308-.948-6.311,1.608-11.519,6.659-12.491,6.719-1.284,11.207,1.776,12.287,8.8,1.44,9.347,2.58,18.742,3.924,28.113.852,5.9,1.836,11.795,2.748,17.686l1.548.924c1.512-1.968,2.88-4.056,4.548-5.867,3.6-3.84,7.439-7.1,8.771-12.791,5.088-21.778,10.727-43.436,16.031-65.166,1.368-5.567,3.9-9.539,9.935-11,24.31-5.9,48.56-12,72.833-18,9.419-2.34,15.275,3.6,12.923,13.031-6,24-12.107,47.888-17.842,71.91-1.428,6-4.68,9.179-10.343,10.583-20.4,5.028-40.592,10.727-61.123,14.891-10.343,2.088-16.342,8.6-23.4,16.163,9.167,1.32,17.566,2.484,25.942,3.744,7.655,1.2,15.395,2.04,22.93,3.732a8.735,8.735,0,0,1,6.683,11.015,10.043,10.043,0,0,1-11.315,7.487c-19.642-2.808-39.3-5.639-58.963-8.327a6.143,6.143,0,0,0-4.392,1.3c-4.356,4.02-8.4,8.4-12.671,12.467-1.812,1.752-1.512,2.988-.456,5.2a245.974,245.974,0,0,1,9.8,23.05c1.2,3.4,2.16,4.98,6.179,4.956q46.076-.306,92.164,0a9.911,9.911,0,0,0,7.763-3.288q15.6-15.839,31.413-31.437c4.8-4.668,10.667-4.8,14.591-.8s3.456,9.767-1.2,14.471c-5.711,5.771-11.483,11.471-17.182,17.23-.888.888-1.6,1.968-3.024,3.756,10.907,0,20.7.288,30.465-.1,5.9-.24,10.307,1.368,13.079,6.707ZM390.187,437.31c26.11.48,47.072-21.6,47.864-46.16.876-27.286-22.162-48.908-46.676-49.412-27.058-.552-48.62,22.006-49.016,47.012-.384,26.626,22.114,49.124,47.876,48.536ZM499.665,279.428c.984.336,1.308.576,1.56.516,16.978-4.248,33.981-8.4,50.911-12.923a6.287,6.287,0,0,0,3.516-3.984c4.14-15.887,8.063-31.833,12-47.78a13.748,13.748,0,0,0,0-3.156,7.02,7.02,0,0,0-2.1-.18c-16.463,4.08-33.009,8.159-49.508,12.479a5.472,5.472,0,0,0-3.432,3.108c-4.416,17.182-8.615,34.461-12.9,51.9Zm-.2,219.376c4.476,18.31,8.591,35.457,12.995,52.531a6.444,6.444,0,0,0,4.08,3.6c16.043,4.188,32.145,8.147,48.236,12.107a10.8,10.8,0,0,0,2.964-.12,6.242,6.242,0,0,0,.2-1.776c-4.152-16.678-8.267-33.381-12.6-50.023a5.376,5.376,0,0,0-3.3-3.048c-8.4-2.316-16.8-4.368-25.2-6.479ZM281.08,280.5c-4.7-18.694-9-36.117-13.583-53.467-.324-1.272-2.508-2.532-4.044-2.928-15.6-4-31.257-7.823-46.9-11.663a33.145,33.145,0,0,0-4.008-.5,13.7,13.7,0,0,0,0,2.52c4.068,16.391,8.1,32.793,12.383,49.124a6.3,6.3,0,0,0,3.9,3.6c12,3.228,24,6.155,36,9.179ZM212.243,566.91a10.119,10.119,0,0,0,2.4.348c16.69-4.14,33.393-8.231,50.035-12.575a6,6,0,0,0,3.228-3.7c1.932-6.539,3.54-13.2,5.184-19.774,2.616-10.475,5.16-20.95,7.859-31.953a14.93,14.93,0,0,0-3.192,0c-16.223,4.128-32.4,8.4-48.656,12.371-3.024.744-3.828,2.4-4.452,5-2.628,10.8-5.424,21.6-8.111,32.469C215.026,554.935,213.683,560.755,212.243,566.91Z" transform="translate(-150 -150)" fill="#a3d4f6"/>
    <path id="Path_64" data-name="Path 64" d="M358.309,405.343c-25.762.588-48.26-21.91-47.828-48.56.4-25.006,21.958-47.564,49.016-47.012,24.514.5,47.552,22.126,46.676,49.412C405.38,383.709,384.418,405.823,358.309,405.343Z" transform="translate(-118.074 -118.057)" fill="#b6f8fd"/>
    <path id="Path_65" data-name="Path 65" d="M441.58,269.088c4.284-17.434,8.483-34.713,12.9-51.931a5.472,5.472,0,0,1,3.432-3.108c16.5-4.284,33.045-8.4,49.579-12.467a7.02,7.02,0,0,1,2.1.18,13.748,13.748,0,0,1,0,3.156c-3.924,15.947-7.847,31.893-12,47.78a6.287,6.287,0,0,1-3.516,3.984c-16.93,4.476-33.933,8.675-50.911,12.923C442.888,269.664,442.564,269.424,441.58,269.088Z" transform="translate(-91.867 -139.684)" fill="#b6f8fd"/>
    <path id="Path_66" data-name="Path 66" d="M441.41,440.67l27.37,6.8c8.4,2.112,16.8,4.164,25.2,6.479a5.376,5.376,0,0,1,3.3,3.048c4.332,16.642,8.4,33.345,12.6,50.023a6.24,6.24,0,0,1-.2,1.776,10.8,10.8,0,0,1-2.964.12c-16.091-3.96-32.193-7.919-48.236-12.107a6.443,6.443,0,0,1-4.08-3.6C450,476.127,445.886,458.98,441.41,440.67Z" transform="translate(-91.901 -91.889)" fill="#b6f8fd"/>
    <path id="Path_67" data-name="Path 67" d="M270.819,270.15l-16.211-4.128c-12-3.024-24.07-6-36-9.179a6.3,6.3,0,0,1-3.9-3.6c-4.284-16.331-8.315-32.733-12.383-49.124a13.7,13.7,0,0,1,0-2.52,33.141,33.141,0,0,1,4.008.5c15.6,3.84,31.293,7.667,46.9,11.663,1.536.4,3.72,1.656,4.044,2.928C261.82,234.033,266.116,251.456,270.819,270.15Z" transform="translate(-139.703 -139.678)" fill="#b6f8fd"/>
    <path id="Path_68" data-name="Path 68" d="M202,508.728c1.476-6.155,2.82-12,4.26-17.77,2.688-10.8,5.484-21.6,8.111-32.469.624-2.58,1.428-4.26,4.452-5,16.259-3.972,32.4-8.243,48.656-12.371a14.926,14.926,0,0,1,3.192,0c-2.7,11-5.244,21.478-7.859,31.953-1.644,6.611-3.252,13.2-5.184,19.774a6,6,0,0,1-3.228,3.7c-16.642,4.344-33.345,8.4-50.035,12.575A10.109,10.109,0,0,1,202,508.728Z" transform="translate(-139.757 -91.818)" fill="#b6f8fd"/>
  </g>
</svg>
