<svg class="c-weather-icon-svg" xmlns="http://www.w3.org/2000/svg" viewBox="0 0 480.348 479.06">
  <g id="_50n" data-name="50n" transform="translate(0.034 154.995)">
    <rect id="Rectangle_19" data-name="Rectangle 19" width="479.06" height="479.06" transform="translate(0.966 -154.995)" fill="none"/>
    <path id="Path_73" data-name="Path 73" d="M115.65,277.38c16.43.07,32.46,1.72,48.28,6.23,12.45,3.56,24.6,7.72,37.45,9.66a213.081,213.081,0,0,0,57.3.82c13.46-1.64,26.17-5.32,39.12-9.19,30.61-9.14,64.92-10.33,95.93-2.28,12,3.12,23.66,7.48,35.87,9.85,18.41,3.57,37.61,4.12,56.27,2.6,15.66-1.27,30.36-5.12,45.33-9.62a182.809,182.809,0,0,1,53.17-7.56c7.72,0,7.73-12,0-12-16.71,0-33.33,1.59-49.48,6-12.33,3.35-24.31,7.64-37,9.74a197.531,197.531,0,0,1-56.63.66c-13-1.67-25.33-5.74-37.86-9.42a193.44,193.44,0,0,0-98.26-2.44c-12,2.92-23.58,7.31-35.68,9.83-18.06,3.76-37.07,4.05-55.39,2.52-15.25-1.28-29.48-5.54-44.05-9.88-17.77-5.29-35.89-7.44-54.41-7.52-7.72,0-7.73,12,0,12Z" transform="translate(-109.85 -265.24)" fill="#60a2d7"/>
    <path id="Path_74" data-name="Path 74" d="M115.65,323.62c16.43.08,32.46,1.72,48.28,6.24,12.45,3.55,24.6,7.72,37.45,9.66a213.491,213.491,0,0,0,57.3.81c13.46-1.64,26.17-5.32,39.12-9.19,30.61-9.13,64.92-10.32,95.93-2.27,12,3.12,23.66,7.48,35.87,9.85,18.41,3.57,37.61,4.11,56.27,2.6,15.66-1.28,30.36-5.13,45.33-9.63a183.149,183.149,0,0,1,53.17-7.56c7.72,0,7.73-12,0-12-16.71,0-33.33,1.6-49.48,6-12.33,3.36-24.31,7.64-37,9.74a197.168,197.168,0,0,1-56.63.66c-13-1.66-25.33-5.73-37.86-9.42a193.439,193.439,0,0,0-98.26-2.44c-12,2.92-23.58,7.31-35.68,9.84-18.06,3.76-37.07,4-55.39,2.51-15.25-1.27-29.48-5.54-44.05-9.88-17.77-5.29-35.89-7.43-54.41-7.52-7.72,0-7.73,12,0,12Z" transform="translate(-109.85 -265.24)" fill="#60a2d7"/>
    <path id="Path_75" data-name="Path 75" d="M115.65,369.87c16.43.07,32.46,1.71,48.28,6.23,12.45,3.55,24.6,7.72,37.45,9.66a213.081,213.081,0,0,0,57.3.82c13.46-1.65,26.17-5.33,39.12-9.19,30.61-9.14,64.92-10.33,95.93-2.28,12,3.12,23.66,7.48,35.87,9.85,18.41,3.57,37.61,4.12,56.27,2.6,15.66-1.27,30.36-5.12,45.33-9.63a183.142,183.142,0,0,1,53.17-7.55c7.72,0,7.73-12,0-12-16.71,0-33.33,1.59-49.48,6-12.33,3.36-24.31,7.64-37,9.74a197.529,197.529,0,0,1-56.63.67c-13-1.67-25.33-5.74-37.86-9.43a193.44,193.44,0,0,0-98.26-2.44c-12,2.92-23.58,7.32-35.68,9.84-18.06,3.76-37.07,4-55.39,2.51-15.25-1.27-29.48-5.53-44.05-9.87-17.77-5.29-35.89-7.44-54.41-7.52-7.72,0-7.73,12,0,12Z" transform="translate(-109.85 -265.24)" fill="#60a2d7"/>
    <path id="Path_76" data-name="Path 76" d="M115.65,416.11c16.43.07,32.46,1.72,48.28,6.23,12.45,3.55,24.6,7.72,37.45,9.66a213.081,213.081,0,0,0,57.3.82c13.46-1.64,26.17-5.33,39.12-9.19,30.61-9.14,64.92-10.33,95.93-2.28,12,3.12,23.66,7.48,35.87,9.85,18.41,3.57,37.61,4.12,56.27,2.6,15.66-1.27,30.36-5.12,45.33-9.62a182.81,182.81,0,0,1,53.17-7.56c7.72,0,7.73-12,0-12-16.71,0-33.33,1.59-49.48,6-12.33,3.35-24.31,7.64-37,9.74a197.53,197.53,0,0,1-56.63.66c-13-1.67-25.33-5.74-37.86-9.42a193.441,193.441,0,0,0-98.26-2.44c-12,2.92-23.58,7.31-35.68,9.83-18.06,3.76-37.07,4.05-55.39,2.52-15.25-1.28-29.48-5.54-44.05-9.88-17.77-5.29-35.89-7.44-54.41-7.52-7.72,0-7.73,12,0,12Z" transform="translate(-109.85 -265.24)" fill="#60a2d7"/>
  </g>
</svg>
